<?xml version="1.0" encoding="UTF-8"?>
<svg id="_레이어_2" data-name="레이어 2" xmlns="http://www.w3.org/2000/svg" viewBox="0 0 373.28 408.92">
  <defs>
    <style>
      .cls-1, .cls-2, .cls-3, .cls-4, .cls-5, .cls-6, .cls-7, .cls-8, .cls-9, .cls-10, .cls-11, .cls-12, .cls-13, .cls-14 {
        stroke: #fff;
      }

      .cls-1, .cls-2, .cls-4, .cls-5, .cls-7, .cls-8, .cls-10, .cls-11, .cls-14 {
        fill: none;
      }

      .cls-1, .cls-3, .cls-4, .cls-12, .cls-13 {
        stroke-linejoin: round;
      }

      .cls-2 {
        stroke-dasharray: 0 0 .99 2.97;
      }

      .cls-2, .cls-3, .cls-5, .cls-8, .cls-10, .cls-13 {
        stroke-linecap: round;
      }

      .cls-2, .cls-3, .cls-10 {
        stroke-width: 2px;
      }

      .cls-2, .cls-5, .cls-6, .cls-7, .cls-8, .cls-9, .cls-10, .cls-11, .cls-14 {
        stroke-miterlimit: 10;
      }

      .cls-3, .cls-6, .cls-9, .cls-12, .cls-15, .cls-13 {
        fill: #fff;
      }

      .cls-4 {
        stroke-width: 1.5px;
      }

      .cls-6, .cls-14 {
        stroke-width: .5px;
      }

      .cls-7, .cls-13 {
        stroke-width: .75px;
      }

      .cls-8 {
        stroke-dasharray: 0 0 1 2.99;
      }

      .cls-15 {
        stroke-width: 0px;
      }
    </style>
  </defs>
  <g id="_레이어_2-2" data-name="레이어 2">
    <g>
      <path class="cls-15" d="m140.37,102.63c-.3,4.14-.1,13.88-6.15,23.18-3.08,4.74-6.56,6.82-8.57,7.75,1.85.55,4.83,1.76,7.56,5.17,5.6,6.98,7.18,19.88,7.17,21.78-.13-2.42.93-14.62,5.3-22.27,1.87-3.27,5.53-5.26,7.28-5.82-3.85-2.34-4.73-3.24-7.19-6.63-4.61-6.35-5.05-20-5.41-23.17Z"/>
      <path class="cls-15" d="m117.92,110.19h-1.33c-1.71,0-3.1-1.39-3.1-3.1v-11.9h-1.53v11.9c0,1.71-1.39,3.1-3.1,3.1h-1.33v1.53h1.33c1.71,0,3.1,1.39,3.1,3.1v11.9h1.53v-11.9c0-1.71,1.39-3.1,3.1-3.1h1.33v-1.53Z"/>
      <path class="cls-15" d="m163.65,161.19h-5.26c-.95,0-1.72-.77-1.72-1.72v-8.29c0-.23-.19-.42-.42-.42s-.42.19-.42.42v8.29c0,.95-.77,1.72-1.72,1.72h-5.26c-.23,0-.42.19-.42.42s.19.42.42.42h5.26c.95,0,1.72.77,1.72,1.72v8.23c0,.23.19.42.42.42s.42-.19.42-.42v-8.23c0-.95.77-1.72,1.72-1.72h5.26c.23,0,.42-.19.42-.42s-.19-.42-.42-.42Z"/>
      <path class="cls-6" d="m165.81,152.77h-2.1c-.38,0-.69-.31-.69-.69v-3.31c0-.09-.08-.17-.17-.17s-.17.08-.17.17v3.31c0,.38-.31.69-.69.69h-2.1c-.09,0-.17.08-.17.17s.08.17.17.17h2.1c.38,0,.69.31.69.69v3.29c0,.09.08.17.17.17s.17-.08.17-.17v-3.29c0-.38.31-.69.69-.69h2.1c.09,0,.17-.08.17-.17s-.08-.17-.17-.17Z"/>
      <line class="cls-11" x1="120.76" y1="102.63" x2="128.85" y2="98.38"/>
      <line class="cls-11" x1="124.8" y1="107.52" x2="130.61" y2="108.22"/>
      <line class="cls-11" x1="100.01" y1="115.26" x2="104.58" y2="114.55"/>
      <line class="cls-11" x1="107.53" y1="116.38" x2="103.69" y2="121.2"/>
      <circle class="cls-11" cx="119.66" cy="118.33" r="1.74"/>
      <circle class="cls-9" cx="126.26" cy="124.12" r="1.45"/>
      <path class="cls-3" d="m47.68,47.57h0c-6.21,0-10.1,0-12.53-1.13.24-2.05,1.13-4.04,2.69-5.62h0s0,0,0,0c-1.55,1.52-3.48,2.4-5.47,2.66-1.28-3.02-1.28-8.27-1.28-17.42h0s0,0,0,0c0,9.15,0,14.4-1.28,17.42-1.99-.27-3.92-1.14-5.46-2.65h0c1.55,1.59,2.44,3.57,2.68,5.62-2.43,1.13-6.32,1.13-12.53,1.12h0s0,.01,0,.01c6.21,0,10.1,0,12.53,1.12-.24,2.05-1.13,4.04-2.69,5.62h0s0,0,0,0c1.55-1.52,3.48-2.4,5.47-2.66,1.28,3.02,1.28,8.27,1.28,17.42h0s0,0,0,0c0-9.15,0-14.4,1.28-17.42,1.99.27,3.92,1.14,5.46,2.65h0c-1.55-1.59-2.44-3.57-2.68-5.62,2.43-1.13,6.32-1.13,12.53-1.12h0Z"/>
      <circle class="cls-15" cx="18.72" cy="55.07" r="1.3"/>
      <circle class="cls-15" cx="14.25" cy="57.18" r="2.16"/>
      <line class="cls-11" x1="44.26" y1="33.17" x2="68.46" y2="18.89"/>
      <path class="cls-15" d="m77.65,10.42h-1.13c-1.07,0-1.95-.87-1.95-1.95V0h-1.07v8.48c0,1.07-.87,1.95-1.95,1.95h-1.13v1.07h1.13c1.07,0,1.95.87,1.95,1.95v8.48h1.07v-8.48c0-1.07.87-1.95,1.95-1.95h1.13v-1.07Z"/>
      <path class="cls-15" d="m84.02,15.94h-.93c-1.19,0-2.15-.96-2.15-2.15V5.51h-1.07v8.27c0,1.19-.96,2.15-2.15,2.15h-.93v1.07h.93c1.19,0,2.15.96,2.15,2.15v8.27h1.07v-8.27c0-1.19.96-2.15,2.15-2.15h.93v-1.07Z"/>
      <line class="cls-11" x1="84.02" y1="32.7" x2="105.61" y2="93.05"/>
      <line class="cls-11" x1="23.59" y1="114.82" x2="94.81" y2="113.16"/>
      <line class="cls-9" x1="17.42" y1="67.52" x2="12.09" y2="102.63"/>
      <circle class="cls-9" cx="12.69" cy="116.82" r="5.86"/>
      <circle class="cls-9" cx="6.47" cy="104.59" r="1.96"/>
      <circle class="cls-9" cx="15.84" cy="106.17" r="1.58"/>
      <line class="cls-11" x1="3.27" y1="118.79" x2=".33" y2="121.36"/>
      <line class="cls-11" x1="5.28" y1="122.67" x2="4.51" y2="126.72"/>
      <line class="cls-11" x1="161.08" y1="174.34" x2="178.72" y2="210.78"/>
      <path class="cls-15" d="m191.75,225.46c1.71-.66,1.71-3.13,0-3.8-.02,0-.03-.01-.05-.02-1.05-.4-2.04-.69-2.92-.91-.55-.13-.96-.58-1.03-1.14-.34-2.49-1.71-8.14-2.26-9.21-.24-.46-.87-.46-1.11,0-.55,1.07-1.92,6.72-2.26,9.21-.08.56-.48,1.01-1.03,1.14-.88.21-1.87.5-2.92.91-.02,0-.04.02-.06.02-1.7.66-1.7,3.12,0,3.78.02,0,.04.02.06.02,1.05.4,2.04.69,2.92.91.55.13.95.58,1.03,1.14.35,2.51,1.76,8.26,2.33,9.35.21.4.76.4.97,0,.57-1.09,1.98-6.84,2.33-9.35.08-.56.48-1.01,1.03-1.14.89-.21,1.87-.5,2.92-.91.02,0,.03-.01.05-.02Z"/>
      <circle class="cls-15" cx="193.5" cy="216.5" r="1.38"/>
      <circle class="cls-15" cx="197.13" cy="219.95" r="1.25"/>
      <g>
        <line class="cls-10" x1="183.93" y1="243.99" x2="183.93" y2="244.49"/>
        <line class="cls-2" x1="183.93" y1="247.47" x2="183.93" y2="329.25"/>
        <line class="cls-10" x1="183.93" y1="330.74" x2="183.93" y2="331.24"/>
      </g>
      <path class="cls-7" d="m173.49,346.72c3.98.05,7.19,4.25,7.23,9.45h0s0,0,0,0c.04-5.2,3.25-9.4,7.23-9.45h0s0,0,0,0c-3.98-.05-7.19-4.25-7.23-9.45h0s0,0,0,0c-.04,5.2-3.25,9.4-7.23,9.45h0s0,0,0,0Z"/>
      <path class="cls-7" d="m187.02,342.88c2.75.04,4.97,2.94,5,6.53h0s0,0,0,0c.03-3.59,2.25-6.5,5-6.53h0s0,0,0,0c-2.75-.04-4.97-2.94-5-6.53h0s0,0,0,0c-.03,3.59-2.25,6.5-5,6.53h0s0,0,0,0Z"/>
      <polygon class="cls-4" points="241 365.72 232.01 390.59 251.91 375.82 228.88 374.95 248.67 391.36 241 365.72"/>
      <circle class="cls-1" cx="248.82" cy="363.61" r="2.49"/>
      <circle class="cls-1" cx="241.84" cy="359.61" r="1.45"/>
      <circle class="cls-12" cx="273.74" cy="386.08" r="1.38"/>
      <circle class="cls-12" cx="282.72" cy="386.22" r="2.63"/>
      <path class="cls-15" d="m318.59,393.17q-15.75,0-15.74-15.74h0s0,0,0,0q0,15.75-15.74,15.74h0s0,0,0,0q15.75,0,15.74,15.74h0s0,0,0,0q0-15.75,15.74-15.74h0s0,0,0,0Z"/>
      <path class="cls-5" d="m194.77,354.46c3.85,10.12,12.28,16.62,29.14,16.62"/>
      <line class="cls-5" x1="255.23" y1="383.6" x2="266.07" y2="386.08"/>
      <g>
        <line class="cls-5" x1="317.6" y1="384.22" x2="318.02" y2="383.95"/>
        <line class="cls-8" x1="320.54" y1="382.36" x2="352.89" y2="361.84"/>
        <line class="cls-5" x1="354.15" y1="361.04" x2="354.57" y2="360.77"/>
      </g>
      <circle class="cls-5" cx="366.44" cy="354.72" r="6.34"/>
      <circle class="cls-5" cx="357.26" cy="346.74" r="2.68"/>
      <circle class="cls-5" cx="349.9" cy="337.91" r="1.57"/>
      <circle class="cls-15" cx="343.71" cy="329.35" r="6.19"/>
      <g>
        <path class="cls-13" d="m315.77,272.09l-4.7-3.05c-.29-.19-.68-.11-.87.19s-.11.68.19.87l4.69,3.04c.19-.39.42-.74.69-1.05Z"/>
        <path class="cls-13" d="m319.11,270.38l-2.53-11.86c-.07-.34-.41-.56-.75-.49s-.56.41-.49.75l2.53,11.85c.4-.14.81-.23,1.23-.26Z"/>
        <path class="cls-13" d="m329.91,272.4l-5.78,1.23c.14.4.23.81.26,1.23l5.78-1.23c.34-.07.56-.41.49-.75s-.41-.56-.75-.49Z"/>
        <path class="cls-13" d="m322.67,271.53l3.05-4.7c.19-.29.11-.68-.19-.87s-.68-.11-.87.19l-3.04,4.69c.39.19.74.42,1.06.69Z"/>
        <path class="cls-13" d="m323.24,278.43l4.69,3.04c.15.09.32.12.47.09s.3-.13.4-.27c.19-.29.11-.68-.19-.87l-4.7-3.05c-.19.39-.41.75-.68,1.06Z"/>
        <path class="cls-13" d="m314.61,275.66l-5.78,1.23c-.34.07-.56.41-.49.75s.41.56.75.49l5.79-1.23c-.14-.4-.23-.81-.27-1.23Z"/>
        <path class="cls-13" d="m319.9,280.14l2.53,11.86c.07.34.41.56.75.49s.56-.41.49-.75l-2.53-11.87c-.4.14-.81.24-1.23.27Z"/>
        <path class="cls-13" d="m316.33,278.99l-3.05,4.7c-.19.29-.11.68.19.87.15.09.32.12.47.09s.3-.13.4-.27l3.06-4.72c-.22-.1-.43-.21-.64-.33-.15-.1-.3-.22-.43-.33Z"/>
      </g>
      <path class="cls-15" d="m307.89,271.61c-.08-.94-.9-1.64-1.84-1.56s-1.64.9-1.56,1.84c.06.79.67,1.41,1.42,1.54.14.01.28.02.42,0s.28-.04.41-.08c.72-.25,1.22-.95,1.15-1.75Z"/>
      <line class="cls-14" x1="324.84" y1="295.36" x2="331.42" y2="308.81"/>
      <line class="cls-14" x1="327.15" y1="293.07" x2="339.06" y2="317.61"/>
    </g>
  </g>
</svg>