<?xml version="1.0" encoding="UTF-8"?>
<svg id="_레이어_2" data-name="레이어 2" xmlns="http://www.w3.org/2000/svg" viewBox="0 0 392.81 341.86">
  <defs>
    <style>
      .cls-1 {
        stroke-dasharray: 0 0 1.02 2.04;
      }

      .cls-1, .cls-2, .cls-3, .cls-4, .cls-5, .cls-6, .cls-7, .cls-8, .cls-9 {
        fill: none;
        stroke: #fff;
      }

      .cls-1, .cls-3, .cls-4, .cls-5, .cls-6, .cls-7, .cls-8, .cls-9 {
        stroke-miterlimit: 10;
      }

      .cls-1, .cls-3, .cls-5, .cls-8 {
        stroke-linecap: round;
      }

      .cls-2 {
        stroke-linejoin: round;
      }

      .cls-4 {
        stroke-width: .75px;
      }

      .cls-5 {
        stroke-dasharray: 0 0 1.11 2.23;
      }

      .cls-6 {
        stroke-width: 2px;
      }

      .cls-8 {
        stroke-dasharray: 0 0 1.05 2.1;
      }

      .cls-10 {
        fill: #fff;
        stroke-width: 0px;
      }

      .cls-9 {
        stroke-width: .5px;
      }
    </style>
  </defs>
  <g id="_레이어_2-2" data-name="레이어 2">
    <g>
      <path class="cls-10" d="m388.48,333.65c-4.51-.05-8.16-3.69-8.21-8.21h0s0,0,0,0c-.05,4.51-3.69,8.16-8.21,8.21h0s0,0,0,0c4.51.05,8.16,3.69,8.21,8.21h0s0,0,0,0c.05-4.51,3.69-8.16,8.21-8.21h0s0,0,0,0Z"/>
      <path class="cls-2" d="m178.47,190.62c-3.48-.03-6.28-2.84-6.32-6.32h0s0,0,0,0c-.03,3.48-2.84,6.28-6.32,6.32h0s0,0,0,0c3.48.03,6.28,2.84,6.32,6.32h0s0,0,0,0c.03-3.48,2.84-6.28,6.32-6.32h0s0,0,0,0Z"/>
      <path class="cls-2" d="m202.08,193.74c-3.48-.05-6.28-4.25-6.32-9.44h0s0,0,0,0c-.03,5.19-2.84,9.39-6.32,9.44h0s0,0,0,0c3.48.05,6.28,4.25,6.32,9.44h0s0,0,0,0c.03-5.19,2.84-9.39,6.32-9.44h0s0,0,0,0Z"/>
      <path class="cls-10" d="m64.62,10.5c-1.13,1.35-.95,3.37.4,4.5s3.37.95,4.5-.4c.96-1.14.97-2.76.13-3.91-.17-.2-.34-.39-.55-.56s-.42-.31-.65-.44c-1.28-.62-2.87-.33-3.83.81Z"/>
      <path class="cls-10" d="m127.95,113.36c0,4.46,3.63,8.09,8.09,8.09s8.09-3.63,8.09-8.09c0-3.78-2.61-6.93-6.12-7.82-.64-.11-1.3-.2-1.97-.2s-1.33.08-1.97.2c-3.51.89-6.12,4.04-6.12,7.82Z"/>
      <path class="cls-7" d="m161.01,159.62c0,3.52,2.68,6.38,5.97,6.38s5.97-2.86,5.97-6.38c0-2.98-1.93-5.46-4.52-6.16-.47-.09-.96-.16-1.46-.16s-.98.07-1.46.16c-2.59.7-4.52,3.19-4.52,6.16Z"/>
      <path class="cls-10" d="m60.27,18.19c-.85,1.01-.71,2.52.3,3.37s2.52.71,3.37-.3c.72-.86.72-2.07.1-2.93-.12-.15-.26-.29-.41-.42s-.32-.23-.48-.33c-.96-.46-2.15-.25-2.87.61Z"/>
      <path class="cls-10" d="m173.42,153.39c.78.77,2.04.77,2.81-.01s.77-2.04-.01-2.81c-.66-.65-1.66-.74-2.42-.29-.13.09-.26.19-.38.31s-.22.25-.31.38c-.45.76-.35,1.76.3,2.42Z"/>
      <path class="cls-10" d="m177.96,156.49c.58.58,1.53.57,2.1,0s.57-1.53,0-2.1c-.49-.49-1.24-.56-1.81-.21-.1.07-.19.14-.28.23s-.16.18-.23.28c-.34.57-.27,1.32.23,1.81Z"/>
      <path class="cls-10" d="m388.64,331.31c.8-.44,1.09-1.45.65-2.25s-1.45-1.09-2.25-.65c-.67.37-.98,1.15-.79,1.87.04.13.09.25.16.37s.15.23.23.33c.5.54,1.33.69,2,.32Z"/>
      <path class="cls-10" d="m392.17,328.4c.6-.33.81-1.09.48-1.68s-1.09-.81-1.68-.48c-.51.28-.73.86-.59,1.4.03.09.07.19.12.28s.11.17.17.25c.38.4.99.52,1.5.24Z"/>
      <path class="cls-10" d="m136.19,204.9c.86-1.39.44-3.22-.95-4.08s-3.22-.44-4.08.95c-.73,1.17-.53,2.66.39,3.61.18.16.36.31.57.44s.43.23.65.32c1.26.4,2.68-.07,3.41-1.25Z"/>
      <path class="cls-10" d="m145.64,213.63c2.96-1.17,4.4-4.53,3.23-7.49-1.17-2.96-4.53-4.4-7.49-3.23-2.96,1.17-4.4,4.53-3.23,7.49s4.53,4.4,7.49,3.23Zm-4.07-10.26c2.11-.84,4.49.19,5.33,2.3.75,1.88,0,3.97-1.66,5-.19.14-.4.27-.63.36s-.47.14-.71.17c-1.91.39-3.89-.62-4.63-2.5-.84-2.11.19-4.49,2.3-5.33Z"/>
      <path class="cls-10" d="m199.8,216.89c-2.28,2.22-2.32,5.88-.1,8.15s5.88,2.32,8.15.1c2.28-2.22,2.32-5.88.1-8.15s-5.88-2.32-8.15-.1Zm7.71,7.9c-1.62,1.58-4.22,1.55-5.8-.07-1.41-1.45-1.53-3.66-.4-5.25.13-.2.27-.4.45-.58s.38-.31.59-.43c1.61-1.1,3.83-.92,5.24.52,1.58,1.62,1.55,4.22-.07,5.8Z"/>
      <path class="cls-10" d="m65.16,33.21c-4.67-1.52-11.96-3.58-17.43-4.62.97-2.07,7.97-11.87,6.86-12.71-1.09-.83-10.37,6.28-11.64,7.59-.12-4.06-.88-11.57-4.08-22.94-.2-.71-1.2-.71-1.39,0-3.21,11.37-3.96,18.88-4.08,22.94-1.27-1.31-10.54-8.42-11.64-7.59-1.11.84,5.89,10.65,6.86,12.71-5.44,1.03-12.7,3.08-17.37,4.6-.67.22-.67,1.16,0,1.38,4.67,1.52,11.92,3.57,17.37,4.6-.97,2.07-7.97,11.87-6.86,12.71,1.09.83,10.37-6.28,11.64-7.59.12,4.06.88,11.57,4.08,22.93.2.71,1.2.71,1.4,0,3.2-11.37,3.96-18.87,4.08-22.93,1.27,1.31,10.54,8.42,11.64,7.59,1.11-.84-5.89-10.65-6.86-12.71,5.47-1.03,12.76-3.09,17.43-4.62.65-.21.65-1.13,0-1.34Z"/>
      <line class="cls-7" x1="14.01" y1="64.23" x2="14.01" y2="53.45"/>
      <line class="cls-7" x1="10.62" y1="58.84" x2="17.4" y2="58.84"/>
      <line class="cls-7" x1="21.06" y1="69.02" x2="21.06" y2="58.24"/>
      <line class="cls-7" x1="17.67" y1="63.63" x2="24.44" y2="63.63"/>
      <path class="cls-10" d="m356.13,292.66h-1.06c-1.01,0-1.83-.82-1.83-1.83v-7.95h-1v7.95c0,1.01-.82,1.83-1.83,1.83h-1.06v1h1.06c1.01,0,1.83.82,1.83,1.83v7.95h1v-7.95c0-1.01.82-1.83,1.83-1.83h1.06v-1Z"/>
      <path class="cls-10" d="m362.1,297.83h-.87c-1.12,0-2.02-.9-2.02-2.02v-7.76h-1v7.76c0,1.12-.9,2.02-2.02,2.02h-.87v1h.87c1.12,0,2.02.9,2.02,2.02v7.76h1v-7.76c0-1.12.9-2.02,2.02-2.02h.87v-1Z"/>
      <line class="cls-6" x1="64.49" y1="50.09" x2="126.41" y2="104.85"/>
      <line class="cls-7" x1="143.09" y1="123.35" x2="160.21" y2="150.89"/>
      <line class="cls-7" x1="177.05" y1="160.86" x2="182.97" y2="161.59"/>
      <line class="cls-7" x1="176.42" y1="164.08" x2="180.51" y2="167"/>
      <line class="cls-9" x1="186.9" y1="194.45" x2="182.43" y2="198.4"/>
      <line class="cls-9" x1="184.9" y1="191.84" x2="180.01" y2="192.97"/>
      <g>
        <line class="cls-3" x1="166.98" y1="170.71" x2="167.03" y2="171.21"/>
        <line class="cls-5" x1="167.25" y1="173.43" x2="168.12" y2="182.29"/>
        <line class="cls-3" x1="168.23" y1="183.4" x2="168.28" y2="183.9"/>
      </g>
      <path class="cls-4" d="m5.18,138.08c-3.26-1.2.58-19.49,4.26-20.58,3.82-1.13,12.31,14.7,10.12,17.57-2.4,3.14-19.31-5.28-19.19-8.84.13-3.59,18.32-6.68,20.31-3.69,1.86,2.79-12.02,16.83-15.51,15.54Z"/>
      <line class="cls-7" x1="24.44" y1="138.16" x2="127.95" y2="199.67"/>
      <line class="cls-7" x1="151.65" y1="212.52" x2="165.01" y2="218.02"/>
      <polygon class="cls-2" points="175.23 213.92 168.02 226.02 179.92 220.31 167.96 217.53 176.66 228.11 175.23 213.92"/>
      <g>
        <line class="cls-3" x1="183.27" y1="222.31" x2="183.77" y2="222.26"/>
        <line class="cls-8" x1="185.86" y1="222.04" x2="194.22" y2="221.17"/>
        <line class="cls-3" x1="195.26" y1="221.07" x2="195.76" y2="221.01"/>
      </g>
      <line class="cls-9" x1="200.55" y1="201.48" x2="202.08" y2="209.81"/>
      <line class="cls-9" x1="202.08" y1="198.5" x2="203.83" y2="205.64"/>
      <line class="cls-7" x1="210.46" y1="228.11" x2="237.05" y2="250.3"/>
      <g>
        <path class="cls-10" d="m247.06,255.76l-5.68-3.18c-.35-.2-.8-.07-1,.28s-.07.8.28,1l5.68,3.17c.19-.46.43-.89.72-1.28Z"/>
        <path class="cls-10" d="m250.81,253.53l-3.84-13.57c-.11-.39-.52-.62-.91-.51s-.62.52-.51.91l3.84,13.57c.45-.19.92-.32,1.41-.4Z"/>
        <path class="cls-10" d="m263.5,255.04l-6.62,1.87c.19.45.33.92.4,1.41l6.62-1.88c.39-.11.62-.52.51-.91s-.52-.62-.91-.51Z"/>
        <path class="cls-10" d="m255.03,254.59l3.18-5.69c.2-.35.07-.8-.28-1s-.8-.07-1,.28l-3.17,5.68c.47.19.89.43,1.28.72Z"/>
        <path class="cls-10" d="m256.22,262.56l5.68,3.17c.18.1.38.12.56.07s.34-.17.44-.35c.2-.35.07-.8-.28-1l-5.69-3.18c-.19.47-.42.9-.7,1.29Z"/>
        <path class="cls-10" d="m245.99,260l-6.62,1.87c-.39.11-.62.52-.51.91s.52.62.91.51l6.62-1.88c-.19-.45-.33-.92-.41-1.41Z"/>
        <path class="cls-10" d="m252.47,264.79l3.84,13.57c.11.39.52.62.91.51s.62-.52.51-.91l-3.85-13.58c-.45.19-.92.34-1.41.41Z"/>
        <path class="cls-10" d="m248.24,263.73l-3.18,5.69c-.2.35-.07.8.28,1,.18.1.38.12.56.07s.34-.17.44-.35l3.19-5.72c-.26-.1-.52-.21-.77-.33-.18-.11-.36-.23-.53-.35Z"/>
      </g>
      <g>
        <line class="cls-3" x1="269.93" y1="267.12" x2="270.4" y2="267.27"/>
        <line class="cls-1" x1="272.34" y1="267.91" x2="344" y2="291.26"/>
        <line class="cls-3" x1="344.97" y1="291.58" x2="345.45" y2="291.73"/>
      </g>
      <line class="cls-7" x1="364.48" y1="303.44" x2="373.2" y2="324.2"/>
    </g>
  </g>
</svg>