<?xml version="1.0" encoding="UTF-8"?>
<svg id="_레이어_2" data-name="레이어 2" xmlns="http://www.w3.org/2000/svg" viewBox="0 0 291.17 504.36">
  <defs>
    <style>
      .cls-1 {
        stroke-dasharray: 0 0 1.92 3.85;
      }

      .cls-1, .cls-2, .cls-3 {
        stroke-linecap: round;
      }

      .cls-1, .cls-2, .cls-3, .cls-4 {
        fill: none;
        stroke: #fff;
        stroke-miterlimit: 10;
      }

      .cls-3 {
        stroke-dasharray: 0 0 1 4;
        stroke-width: 2px;
      }

      .cls-5 {
        fill: #fff;
        stroke-width: 0px;
      }
    </style>
  </defs>
  <g id="_레이어_2-2" data-name="레이어 2">
    <g>
      <circle class="cls-5" cx="95.98" cy="36.29" r="1.93"/>
      <circle class="cls-5" cx="92.75" cy="32.86" r="1.29"/>
      <circle class="cls-5" cx="126.96" cy="233.11" r="6.17"/>
      <circle class="cls-5" cx="122.86" cy="218.65" r="4.13"/>
      <circle class="cls-5" cx="265.54" cy="372.51" r="4.13"/>
      <path class="cls-5" d="m167.73,293.22c1.07-.44,1.07-1.62,0-2.06-1.92-.78-4.18-1.59-6.79-2.33-3.45-.97-6.62-1.57-9.25-1.95.11-2.56-4.05-15.59-5.59-17.77-.57-.8-2.09-.8-2.65,0-1.54,2.18-5.69,15.21-5.59,17.77-2.63.38-5.81.98-9.25,1.95-2.62.74-4.89,1.55-6.81,2.34-1.06.43-1.06,1.6,0,2.04,1.92.79,4.19,1.6,6.81,2.34,3.45.97,6.62,1.57,9.25,1.95-.11,2.56,4.16,15.78,5.75,18,.5.7,1.82.7,2.33,0,1.59-2.22,5.86-15.44,5.75-18,2.63-.38,5.81-.98,9.25-1.95,2.61-.74,4.87-1.54,6.79-2.33Z"/>
      <line class="cls-2" x1="113.76" y1="12.17" x2="113.76" y2="42.95"/>
      <line class="cls-2" x1="100.17" y1="27.56" x2="126.98" y2="27.56"/>
      <line class="cls-2" x1="104.85" y1="36.48" x2="122.68" y2="18.65"/>
      <line class="cls-2" x1="122.49" y1="36.29" x2="104.66" y2="18.46"/>
      <line class="cls-2" x1="127.08" y1=".5" x2="127.08" y2="16.11"/>
      <line class="cls-2" x1="120.18" y1="8.3" x2="133.78" y2="8.3"/>
      <line class="cls-2" x1="122.56" y1="12.82" x2="131.6" y2="3.78"/>
      <line class="cls-2" x1="131.5" y1="12.73" x2="122.46" y2="3.69"/>
      <path class="cls-4" d="m113.57,54.85c-5.74,41.12-1.74,119.4,7.43,153.38"/>
      <g>
        <path class="cls-2" d="m136.69,240.43c.17.01.52.04.99.11"/>
        <path class="cls-1" d="m141.38,241.56c1.94.79,4.11,2.14,5.84,4.43,2.76,3.67,3.46,8.57,2.02,13.1"/>
        <path class="cls-2" d="m148.54,260.89c-.14.3-.29.6-.44.9"/>
      </g>
      <line class="cls-2" x1="157.47" y1="305.96" x2="162.92" y2="316.02"/>
      <line class="cls-2" x1="166.92" y1="303.06" x2="254.13" y2="368.1"/>
      <line class="cls-2" x1="172.37" y1="295.06" x2="178.18" y2="295.79"/>
      <line class="cls-2" x1="160.19" y1="284.16" x2="166.19" y2="281.25"/>
      <path class="cls-3" d="m140.37,320.31c-14.9,47.59-75.32,130.73-116.02,155.55"/>
      <path class="cls-5" d="m12.7,483.05h-1.99c-1.89,0-3.42-1.09-3.42-2.44v-10.62h-1.87v10.62c0,1.35-1.53,2.44-3.42,2.44H0v1.34h1.99c1.89,0,3.42,1.09,3.42,2.44v10.62h1.87v-10.62c0-1.35,1.53-2.44,3.42-2.44h1.99v-1.34Z"/>
      <path class="cls-5" d="m23.9,489.97h-1.63c-2.09,0-3.79-1.21-3.79-2.7v-10.36h-1.87v10.36c0,1.49-1.7,2.7-3.79,2.7h-1.63v1.34h1.63c2.09,0,3.79,1.21,3.79,2.7v10.36h1.87v-10.36c0-1.49,1.7-2.7,3.79-2.7h1.63v-1.34Z"/>
      <path class="cls-5" d="m290.22,375.33c-2.29-4.71-7.98-6.69-12.69-4.4s-6.69,7.98-4.4,12.69c2.29,4.71,7.98,6.69,12.69,4.4,4.71-2.29,6.69-7.98,4.4-12.69Zm-16.37,7.94c-1.63-3.36-.23-7.41,3.13-9.03,2.99-1.45,6.52-.49,8.41,2.12.25.3.49.63.67,1s.29.75.37,1.14c.87,3.09-.55,6.46-3.55,7.91-3.36,1.63-7.41.23-9.03-3.13Z"/>
    </g>
  </g>
</svg>