<?xml version="1.0" encoding="UTF-8"?>
<svg id="_레이어_2" data-name="레이어 2" xmlns="http://www.w3.org/2000/svg" viewBox="0 0 320.36 345.88">
  <defs>
    <style>
      .cls-1, .cls-2, .cls-3, .cls-4, .cls-5, .cls-6, .cls-7, .cls-8, .cls-9, .cls-10, .cls-11, .cls-12 {
        stroke: #fff;
      }

      .cls-1, .cls-2, .cls-3, .cls-4, .cls-7, .cls-12 {
        stroke-linejoin: round;
      }

      .cls-1, .cls-2, .cls-3, .cls-5, .cls-6, .cls-9, .cls-11 {
        stroke-linecap: round;
      }

      .cls-1, .cls-6, .cls-8, .cls-13 {
        fill: #fff;
      }

      .cls-2, .cls-3, .cls-4, .cls-5, .cls-7, .cls-9, .cls-10, .cls-11, .cls-12 {
        fill: none;
      }

      .cls-3 {
        stroke-width: .75px;
      }

      .cls-5 {
        stroke-dasharray: 0 0 1.1 3.31;
      }

      .cls-5, .cls-6, .cls-8, .cls-9, .cls-10, .cls-11 {
        stroke-miterlimit: 10;
      }

      .cls-5, .cls-6, .cls-9, .cls-11, .cls-12 {
        stroke-width: 2px;
      }

      .cls-7 {
        stroke-width: 1.5px;
      }

      .cls-8 {
        stroke-width: .5px;
      }

      .cls-11 {
        stroke-dasharray: 0 0 1.02 3.06;
      }

      .cls-13 {
        stroke-width: 0px;
      }
    </style>
  </defs>
  <g id="_레이어_2-2" data-name="레이어 2">
    <g>
      <polygon class="cls-7" points="81.9 5.54 62.57 30.54 90.61 21.02 64.74 11.6 81.24 37.51 81.9 5.54"/>
      <circle class="cls-4" cx="93.59" cy="8.52" r="2.98"/>
      <circle class="cls-4" cx="101.97" cy="3.81" r="1.73"/>
      <path class="cls-4" d="m103.7,17.9C120.8,7,167.13-.45,200.54,9.99"/>
      <path class="cls-12" d="m33.03,151.85c-2.59-23.41,10.72-78.22,34.9-111.56"/>
      <line class="cls-3" x1="50.32" y1="150.98" x2="200.54" y2="23.89"/>
      <line class="cls-3" x1="47.95" y1="147.18" x2="101.97" y2="102.29"/>
      <path class="cls-13" d="m220.49,15.3h-6.29c-1.14,0-2.06-.92-2.06-2.06V3.33c0-.28-.23-.51-.51-.51s-.51.23-.51.51v9.91c0,1.14-.92,2.06-2.06,2.06h-6.29c-.28,0-.51.23-.51.51s.23.51.51.51h6.29c1.14,0,2.06.92,2.06,2.06v9.84c0,.28.23.51.51.51s.51-.23.51-.51v-9.84c0-1.14.92-2.06,2.06-2.06h6.29c.28,0,.51-.23.51-.51s-.23-.51-.51-.51Z"/>
      <path class="cls-8" d="m223.08,5.23h-2.51c-.45,0-.82-.37-.82-.82V.45c0-.11-.09-.2-.2-.2s-.2.09-.2.2v3.96c0,.45-.37.82-.82.82h-2.51c-.11,0-.2.09-.2.2s.09.2.2.2h2.51c.45,0,.82.37.82.82v3.93c0,.11.09.2.2.2s.2-.09.2-.2v-3.93c0-.45.37-.82.82-.82h2.51c.11,0,.2-.09.2-.2s-.09-.2-.2-.2Z"/>
      <line class="cls-10" x1="211.63" y1="31.97" x2="206.75" y2="107.4"/>
      <line class="cls-9" x1="205.9" y1="113.7" x2="205.9" y2="126.17"/>
      <line class="cls-9" x1="200.66" y1="119.94" x2="211.14" y2="119.94"/>
      <circle class="cls-6" cx="211.65" cy="117.17" r=".51"/>
      <circle class="cls-6" cx="214.98" cy="118.04" r=".36"/>
      <circle class="cls-6" cx="217.29" cy="129.96" r="3.79"/>
      <g>
        <path class="cls-9" d="m223.28,137.24c.06.16.11.31.17.47"/>
        <path class="cls-11" d="m224.58,140.55c9.68,22.81,31.72,41.37,53.05,52.37"/>
        <path class="cls-9" d="m278.99,193.61c.15.07.3.15.45.22"/>
      </g>
      <path class="cls-13" d="m85.33,315.21c1.31-.04,2.34-1.13,2.31-2.44s-1.13-2.34-2.44-2.31c-1.11.03-2.01.82-2.24,1.86-.03.19-.05.38-.04.58s.04.39.07.58c.29,1.02,1.23,1.76,2.34,1.73Z"/>
      <path class="cls-13" d="m91.75,313.84c.98-.03,1.75-.85,1.73-1.83s-.85-1.75-1.83-1.73c-.83.02-1.51.62-1.68,1.39-.02.14-.04.29-.03.43s.03.29.06.43c.22.76.92,1.32,1.75,1.3Z"/>
      <path class="cls-13" d="m90.76,279.17c1.73,2.04,4.8,2.3,6.84.57s2.3-4.8.57-6.84c-1.46-1.73-3.88-2.16-5.83-1.21-.34.2-.67.41-.98.67s-.58.55-.83.86c-1.26,1.76-1.24,4.22.23,5.95Z"/>
      <path class="cls-13" d="m101.15,287.69c1.3,1.53,3.59,1.72,5.13.43s1.72-3.59.43-5.13c-1.1-1.3-2.91-1.62-4.37-.91-.25.15-.5.31-.73.5s-.43.41-.62.64c-.95,1.32-.93,3.16.17,4.46Z"/>
      <g>
        <path class="cls-13" d="m80.08,331.23l6.04,3.24c.38.2.93.12,1.23-.18s.24-.71-.13-.91l-6.03-3.24c-.31.4-.68.76-1.1,1.09Z"/>
        <path class="cls-13" d="m75.25,332.96l1.83,12.4c.05.36.48.59.96.52s.82-.42.77-.77l-1.83-12.39c-.56.14-1.15.22-1.74.25Z"/>
        <path class="cls-13" d="m60.67,330.7l8.13-1.2c-.14-.41-.2-.85-.19-1.29l-8.13,1.2c-.48.07-.82.42-.77.77s.48.59.96.52Z"/>
        <path class="cls-13" d="m70.51,331.71l-4.85,4.85c-.3.3-.24.71.13.91s.93.12,1.23-.18l4.84-4.85c-.51-.2-.96-.45-1.36-.73Z"/>
        <path class="cls-13" d="m70.69,324.5l-6.03-3.24c-.19-.1-.42-.13-.64-.1s-.43.13-.59.28c-.3.3-.24.71.13.91l6.05,3.24c.31-.4.66-.78,1.08-1.1Z"/>
        <path class="cls-13" d="m82.17,327.52l8.13-1.2c.48-.07.82-.42.77-.77s-.48-.59-.96-.52l-8.14,1.2c.14.41.21.85.2,1.29Z"/>
        <path class="cls-13" d="m75.52,322.78l-1.83-12.4c-.05-.36-.48-.59-.96-.52s-.82.42-.77.77l1.83,12.41c.57-.14,1.15-.23,1.73-.26Z"/>
        <path class="cls-13" d="m80.27,324.03l4.85-4.85c.3-.3.24-.71-.13-.91-.19-.1-.42-.13-.64-.1s-.43.13-.59.28l-4.87,4.88c.29.11.57.23.83.35.2.11.38.23.55.35Z"/>
      </g>
      <path class="cls-13" d="m320,202.06c-3.44-.9-8.83-2.12-12.86-2.72.72-1.22,5.88-7.01,5.06-7.5-.81-.49-7.65,3.71-8.59,4.48-.09-2.4-.65-6.83-3.01-13.54-.15-.42-.88-.42-1.03,0-2.37,6.71-2.92,11.14-3.01,13.54-.94-.77-7.78-4.97-8.59-4.48-.82.5,4.35,6.28,5.06,7.5-4.02.61-9.37,1.82-12.82,2.71-.49.13-.49.68,0,.81,3.45.9,8.8,2.11,12.82,2.71-.72,1.22-5.88,7.01-5.06,7.5.81.49,7.65-3.71,8.59-4.48.09,2.4.65,6.83,3.01,13.53.15.42.89.42,1.03,0,2.36-6.71,2.92-11.14,3.01-13.53.94.77,7.78,4.97,8.59,4.48.82-.5-4.35-6.28-5.06-7.5,4.03-.61,9.42-1.83,12.86-2.72.48-.12.48-.66,0-.79Z"/>
      <line class="cls-10" x1="312.65" y1="197.83" x2="318.75" y2="195.94"/>
      <line class="cls-10" x1="305.72" y1="190.26" x2="307.4" y2="185.85"/>
      <line class="cls-10" x1="286.73" y1="207.21" x2="283.52" y2="208.2"/>
      <line class="cls-10" x1="34.67" y1="191.78" x2="87.64" y2="268.43"/>
      <g>
        <line class="cls-9" x1="96.92" y1="293.68" x2="96.65" y2="294.11"/>
        <line class="cls-5" x1="94.9" y1="296.92" x2="91.09" y2="303"/>
        <line class="cls-9" x1="90.21" y1="304.4" x2="89.94" y2="304.83"/>
      </g>
      <path class="cls-1" d="m44.61,174.39h0c-8.25,0-13.41,0-16.64-1.5.32-2.72,1.5-5.36,3.57-7.47h0s0,0,0,0c-2.05,2.01-4.62,3.18-7.27,3.54-1.7-4.01-1.7-10.98-1.7-23.13h0s0,0,0,0c0,12.15,0,19.12-1.7,23.13-2.65-.35-5.2-1.52-7.25-3.53h0c2.06,2.11,3.24,4.74,3.55,7.46-3.23,1.5-8.39,1.49-16.64,1.49h0s0,.01,0,.01c8.25,0,13.41,0,16.64,1.49-.32,2.72-1.5,5.36-3.57,7.47h0s0,0,0,0c2.05-2.01,4.62-3.18,7.27-3.54,1.7,4.01,1.7,10.98,1.7,23.13h0s0,0,0,0c0-12.15,0-19.12,1.7-23.13,2.65.35,5.2,1.52,7.25,3.53h0c-2.06-2.11-3.24-4.74-3.55-7.46,3.23-1.5,8.39-1.5,16.64-1.49h0Z"/>
      <line class="cls-2" x1="40.3" y1="152.77" x2="40.3" y2="165.25"/>
      <line class="cls-2" x1="35.79" y1="159.01" x2="44.81" y2="159.01"/>
    </g>
  </g>
</svg>