<?xml version="1.0" encoding="UTF-8"?>
<svg id="_레이어_2" data-name="레이어 2" xmlns="http://www.w3.org/2000/svg" viewBox="0 0 451.89 393.35">
  <defs>
    <style>
      .cls-1, .cls-2, .cls-3, .cls-4, .cls-5, .cls-6, .cls-7, .cls-8, .cls-9, .cls-10, .cls-11, .cls-12, .cls-13, .cls-14 {
        stroke: #fff;
      }

      .cls-1, .cls-2, .cls-3, .cls-9, .cls-11, .cls-13 {
        stroke-linejoin: round;
      }

      .cls-1, .cls-2, .cls-4, .cls-7, .cls-9, .cls-12, .cls-13 {
        stroke-linecap: round;
      }

      .cls-1, .cls-6, .cls-11, .cls-15, .cls-13 {
        fill: #fff;
      }

      .cls-2, .cls-3, .cls-4, .cls-5, .cls-7, .cls-8, .cls-9, .cls-10, .cls-12, .cls-14 {
        fill: none;
      }

      .cls-4, .cls-5, .cls-6, .cls-7, .cls-8, .cls-10, .cls-12, .cls-14 {
        stroke-miterlimit: 10;
      }

      .cls-5, .cls-13 {
        stroke-width: .75px;
      }

      .cls-7, .cls-8, .cls-12 {
        stroke-width: 2px;
      }

      .cls-9, .cls-14 {
        stroke-width: .5px;
      }

      .cls-15 {
        stroke-width: 0px;
      }

      .cls-12 {
        stroke-dasharray: 0 0 1 3;
      }
    </style>
  </defs>
  <g id="_레이어_2-2" data-name="레이어 2">
    <g>
      <path class="cls-1" d="m123.83,95.07h0c-8.25,0-13.41,0-16.64-1.5.32-2.72,1.5-5.36,3.57-7.47h0s0,0,0,0c-2.05,2.01-4.62,3.18-7.27,3.54-1.7-4.01-1.7-10.98-1.7-23.13h0s0,0,0,0c0,12.15,0,19.12-1.7,23.13-2.65-.35-5.2-1.52-7.25-3.53h0c2.06,2.11,3.24,4.74,3.55,7.46-3.23,1.5-8.39,1.49-16.64,1.49h0s0,.01,0,.01c8.25,0,13.41,0,16.64,1.49-.32,2.72-1.5,5.36-3.57,7.47h0s0,0,0,0c2.05-2.01,4.62-3.18,7.27-3.54,1.7,4.01,1.7,10.98,1.7,23.13h0s0,0,0,0c0-12.15,0-19.12,1.7-23.13,2.65.35,5.2,1.52,7.25,3.53h0c-2.06-2.11-3.24-4.74-3.55-7.46,3.23-1.5,8.39-1.5,16.64-1.49h0Z"/>
      <line class="cls-2" x1="119.52" y1="73.45" x2="119.52" y2="85.93"/>
      <path class="cls-15" d="m178.72,272.07c1.71-.46,1.71-2.16,0-2.62-.02,0-.03,0-.05-.01-1.05-.28-2.04-.48-2.92-.62-.55-.09-.96-.4-1.03-.79-.34-1.72-1.71-5.62-2.26-6.36-.24-.32-.87-.32-1.11,0-.55.74-1.92,4.64-2.26,6.36-.08.39-.48.7-1.03.79-.88.15-1.87.35-2.92.62-.02,0-.04.01-.06.02-1.7.46-1.7,2.16,0,2.61.02,0,.04.01.06.02,1.05.28,2.04.48,2.92.63.55.09.95.4,1.03.78.35,1.73,1.76,5.7,2.33,6.45.21.28.76.28.97,0,.57-.75,1.98-4.72,2.33-6.45.08-.39.48-.69,1.03-.78.89-.15,1.87-.35,2.92-.63.02,0,.03,0,.05-.01Z"/>
      <path class="cls-15" d="m449.8,172.89c2.32-.62,2.32-2.93,0-3.55-.02,0-.04-.01-.06-.02-1.42-.38-2.76-.65-3.95-.85-.74-.12-1.3-.54-1.4-1.07-.46-2.33-2.31-7.61-3.06-8.61-.32-.43-1.18-.43-1.51,0-.75,1-2.6,6.28-3.06,8.61-.1.52-.65.94-1.4,1.07-1.2.2-2.54.47-3.95.85-.03,0-.06.02-.09.02-2.31.62-2.31,2.92,0,3.54.03,0,.06.02.09.02,1.42.38,2.76.65,3.96.85.74.12,1.29.54,1.4,1.06.48,2.35,2.38,7.72,3.15,8.74.29.37,1.03.37,1.32,0,.78-1.02,2.68-6.39,3.15-8.74.11-.52.66-.94,1.4-1.06,1.2-.2,2.54-.47,3.96-.85.02,0,.04-.01.06-.02Z"/>
      <path class="cls-10" d="m339.77,310.92c2.32-.57,2.32-2.7,0-3.28-.02,0-.04-.01-.06-.02-1.42-.35-2.76-.6-3.95-.78-.74-.11-1.3-.5-1.4-.98-.46-2.15-2.31-7.03-3.06-7.95-.32-.4-1.18-.4-1.51,0-.75.92-2.6,5.8-3.06,7.95-.1.48-.65.87-1.4.98-1.2.18-2.54.43-3.95.78-.03,0-.06.01-.09.02-2.31.57-2.31,2.69,0,3.27.03,0,.06.01.09.02,1.42.35,2.76.6,3.96.78.74.11,1.29.5,1.4.98.48,2.17,2.38,7.13,3.15,8.07.29.35,1.03.35,1.32,0,.78-.94,2.68-5.9,3.15-8.07.11-.48.66-.87,1.4-.98,1.2-.18,2.54-.43,3.96-.78.02,0,.04-.01.06-.02Z"/>
      <g>
        <path class="cls-13" d="m16.73,217.61l-3.95-3.96c-.25-.25-.65-.25-.89,0s-.25.65,0,.89l3.95,3.96c.26-.34.57-.63.9-.89Z"/>
        <path class="cls-13" d="m20.35,216.64l.02-12.12c0-.35-.28-.63-.63-.63s-.63.28-.63.63l-.02,12.12c.42-.05.84-.05,1.26,0Z"/>
        <path class="cls-13" d="m30.49,220.88h-5.91c.05.41.05.83,0,1.25h5.91c.35,0,.63-.27.63-.62s-.28-.63-.63-.63Z"/>
        <path class="cls-13" d="m23.59,218.51l3.97-3.95c.25-.25.25-.65,0-.89s-.65-.25-.89,0l-3.96,3.95c.34.26.63.57.89.9Z"/>
        <path class="cls-13" d="m22.7,225.38l3.95,3.96c.12.12.28.19.45.19s.32-.06.45-.18c.25-.25.25-.65,0-.89l-3.96-3.97c-.26.34-.56.65-.89.9Z"/>
        <path class="cls-13" d="m14.85,220.85h-5.91c-.35,0-.63.27-.63.62s.28.63.63.63h5.92c-.06-.41-.06-.83,0-1.25Z"/>
        <path class="cls-13" d="m19.07,226.34l-.02,12.12c0,.35.28.63.63.63s.63-.28.63-.63l.02-12.13c-.42.05-.84.06-1.26,0Z"/>
        <path class="cls-13" d="m15.83,224.47l-3.97,3.95c-.25.25-.25.65,0,.89.12.12.28.19.45.19s.32-.06.45-.18l3.99-3.97c-.19-.15-.38-.3-.56-.46-.13-.13-.24-.27-.35-.42Z"/>
      </g>
      <path class="cls-15" d="m9.12,215.48c.12-.93-.54-1.79-1.47-1.91s-1.79.54-1.91,1.47c-.1.79.36,1.52,1.06,1.8.13.04.27.08.41.1s.28.02.42.01c.76-.09,1.39-.68,1.5-1.47Z"/>
      <path class="cls-15" d="m5.14,210.86c.19-1.41-.81-2.71-2.22-2.9s-2.71.81-2.9,2.22c-.16,1.19.54,2.3,1.61,2.73.2.06.4.12.62.15s.42.03.63.02c1.15-.13,2.1-1.02,2.26-2.22Z"/>
      <line class="cls-2" x1="115.01" y1="79.69" x2="124.03" y2="79.69"/>
      <line class="cls-2" x1="210.45" y1="163.64" x2="210.45" y2="174.09"/>
      <line class="cls-2" x1="207.72" y1="168.86" x2="213.17" y2="168.86"/>
      <line class="cls-2" x1="213.94" y1="173.39" x2="213.94" y2="183.84"/>
      <line class="cls-2" x1="211.5" y1="178.61" x2="216.38" y2="178.61"/>
      <line class="cls-2" x1="78.17" y1="100.58" x2="78.17" y2="116.69"/>
      <line class="cls-2" x1="73.66" y1="108.64" x2="82.68" y2="108.64"/>
      <line class="cls-1" x1="112" y1="121.2" x2="125.12" y2="136.51"/>
      <line class="cls-1" x1="129.07" y1="141.12" x2="142.2" y2="156.43"/>
      <circle class="cls-1" cx="152.72" cy="167.85" r="5.78"/>
      <circle class="cls-1" cx="153.29" cy="181.37" r="2.96"/>
      <circle class="cls-1" cx="204.76" cy="176.12" r="2.96"/>
      <line class="cls-2" x1="152.72" y1="191.38" x2="150.61" y2="219.2"/>
      <path class="cls-6" d="m325.64,380.04q-7.22,0-7.22-13.3h0s0,0,0,0q0,13.3-7.22,13.3h0s0,0,0,0q7.22,0,7.22,13.3h0s0,0,0,0q0-13.3,7.22-13.3h0s0,0,0,0Z"/>
      <path class="cls-6" d="m337.6,372.27q-7.22,0-7.22-13.3h0s0,0,0,0q0,13.3-7.22,13.3h0s0,0,0,0q7.22,0,7.22,13.3h0s0,0,0,0q0-13.3,7.22-13.3h0s0,0,0,0Z"/>
      <path class="cls-10" d="m204.76,69.88q-6.65,0-6.65-9.73h0s0,0,0,0q0,9.74-6.65,9.73h0s0,0,0,0q6.65,0,6.65,9.73h0s0,0,0,0q0-9.74,6.65-9.73h0s0,0,0,0Z"/>
      <path class="cls-10" d="m218.07,64.81q-6.65,0-6.65-9.73h0s0,0,0,0q0,9.74-6.65,9.73h0s0,0,0,0q6.65,0,6.65,9.73h0s0,0,0,0q0-9.74,6.65-9.73h0s0,0,0,0Z"/>
      <path class="cls-15" d="m97.57,252.96h-1.63c-1.55,0-2.8-1.25-2.8-2.8v-12.2h-1.53v12.2c0,1.55-1.25,2.8-2.8,2.8h-1.63v1.53h1.63c1.55,0,2.8,1.25,2.8,2.8v12.2h1.53v-12.2c0-1.55,1.25-2.8,2.8-2.8h1.63v-1.53Z"/>
      <path class="cls-15" d="m107.79,244.25h-1.08c-1.39,0-2.52-.92-2.52-2.05v-7.86h-1.25v7.86c0,1.13-1.13,2.05-2.52,2.05h-1.08v1.01h1.08c1.39,0,2.52.92,2.52,2.05v7.86h1.25v-7.86c0-1.13,1.13-2.05,2.52-2.05h1.08v-1.01Z"/>
      <line class="cls-8" x1="111.13" y1="249.23" x2="134.61" y2="240.17"/>
      <line class="cls-12" x1="37.12" y1="229.86" x2="79.72" y2="249.23"/>
      <line class="cls-10" x1="156.25" y1="247.11" x2="165.55" y2="261.11"/>
      <path class="cls-10" d="m170.45,285.53c-.31,6.41-4.9,15.62-11.1,19.07"/>
      <polygon class="cls-3" points="154.02 305.91 150.38 315.97 158.44 310 149.12 309.64 157.13 316.29 154.02 305.91"/>
      <polygon class="cls-3" points="402.22 309.32 393.54 321.84 406.8 316.55 394.11 312.67 402.7 324.72 402.22 309.32"/>
      <circle class="cls-15" cx="147.21" cy="304.58" r="2.49"/>
      <circle class="cls-15" cx="140.23" cy="300.58" r="1.45"/>
      <polygon class="cls-3" points="248.02 69.58 240.61 82.26 252.96 76.2 240.48 73.4 249.63 84.35 248.02 69.58"/>
      <circle class="cls-15" cx="230.17" cy="74.47" r="2.49"/>
      <circle class="cls-15" cx="268.46" cy="70.48" r="3.65"/>
      <circle class="cls-15" cx="277.43" cy="76.08" r="2.76"/>
      <circle class="cls-15" cx="223.19" cy="70.48" r="1.45"/>
      <path class="cls-10" d="m164.89,173.62c15.11,8.83,31.92,3.25,31.92,3.25"/>
      <line class="cls-2" x1="218.62" y1="167.85" x2="227.47" y2="155.41"/>
      <path class="cls-15" d="m247.18,147.08c-6.03-.06-10.91-4.94-10.97-10.97h0s0,0,0,0c-.06,6.03-4.94,10.91-10.97,10.97h0s0,0,0,0c6.03.06,10.91,4.94,10.97,10.97h0s0,0,0,0c.06-6.03,4.94-10.91,10.97-10.97h0s0,0,0,0Z"/>
      <path class="cls-10" d="m160.43,234.45c-6.03-.06-10.91-4.94-10.97-10.97h0s0,0,0,0c-.06,6.03-4.94,10.91-10.97,10.97h0s0,0,0,0c6.03.06,10.91,4.94,10.97,10.97h0s0,0,0,0c.06-6.03,4.94-10.91,10.97-10.97h0s0,0,0,0Z"/>
      <path class="cls-15" d="m259.99,197.14c-4.95-.07-8.95-6.11-9-13.57h0s0,0,0,0c-.05,7.46-4.05,13.5-9,13.57h0s0,0,0,0c4.95.07,8.95,6.11,9,13.57h0s0,0,0,0c.05-7.46,4.05-13.5,9-13.57h0s0,0,0,0Z"/>
      <path class="cls-3" d="m343.37,115.98c-4.62-.08-8.36-6.79-8.4-15.09h0s0,0,0,0c-.05,8.3-3.78,15.01-8.4,15.09h0s0,0,0,0c4.62.08,8.36,6.79,8.4,15.09h0s0,0,0,0c.05-8.3,3.78-15.01,8.4-15.09h0s0,0,0,0Z"/>
      <path class="cls-9" d="m346.72,106.7c-1.15-.02-2.07-1.68-2.08-3.74h0s0,0,0,0c-.01,2.06-.94,3.72-2.08,3.74h0s0,0,0,0c1.15.02,2.07,1.68,2.08,3.74h0s0,0,0,0c.01-2.06.94-3.72,2.08-3.74h0s0,0,0,0Z"/>
      <line class="cls-7" x1="256.65" y1="77.66" x2="263.33" y2="76.08"/>
      <path class="cls-4" d="m243.91,87.82s-9.35,20-5.76,44.29"/>
      <path class="cls-15" d="m331.81,19.67c-3.46-.9-8.86-2.12-12.91-2.73.72-1.22,5.9-7.03,5.08-7.53-.81-.49-7.68,3.72-8.62,4.49-.09-2.41-.65-6.85-3.02-13.59-.15-.42-.89-.42-1.03,0-2.37,6.74-2.93,11.18-3.02,13.59-.94-.78-7.81-4.99-8.62-4.49-.82.5,4.36,6.31,5.08,7.53-4.03.61-9.41,1.82-12.86,2.72-.49.13-.49.69,0,.82,3.46.9,8.83,2.11,12.86,2.72-.72,1.22-5.9,7.03-5.08,7.53.81.49,7.68-3.72,8.62-4.49.09,2.41.65,6.85,3.02,13.58.15.42.89.42,1.04,0,2.37-6.73,2.93-11.18,3.02-13.58.94.78,7.81,4.99,8.62,4.49.82-.5-4.36-6.31-5.08-7.53,4.05-.61,9.45-1.83,12.91-2.73.48-.12.48-.67,0-.79Z"/>
      <path class="cls-5" d="m419.4,270.7c-1.52-.46-3.89-1.07-5.67-1.38.32-.62,2.59-3.56,2.23-3.81-.36-.25-3.37,1.88-3.79,2.27-.04-1.22-.29-3.46-1.33-6.87-.06-.21-.39-.21-.45,0-1.04,3.41-1.29,5.65-1.33,6.87-.41-.39-3.43-2.52-3.79-2.27-.36.25,1.92,3.19,2.23,3.81-1.77.31-4.13.92-5.65,1.38-.22.06-.22.35,0,.41,1.52.46,3.88,1.07,5.65,1.38-.32.62-2.59,3.56-2.23,3.81.36.25,3.37-1.88,3.79-2.27.04,1.22.29,3.46,1.33,6.87.06.21.39.21.46,0,1.04-3.4,1.29-5.65,1.33-6.87.41.39,3.43,2.52,3.79,2.27.36-.25-1.92-3.19-2.23-3.81,1.78-.31,4.15-.93,5.67-1.38.21-.06.21-.34,0-.4Z"/>
      <line class="cls-10" x1="304.65" y1="37.25" x2="281.61" y2="66.83"/>
      <line class="cls-10" x1="221.74" y1="186.38" x2="240.48" y2="192.99"/>
      <line class="cls-10" x1="258.85" y1="187.96" x2="268.46" y2="168.86"/>
      <circle class="cls-6" cx="272.11" cy="160.53" r="5.35"/>
      <circle class="cls-6" cx="280.03" cy="151.34" r="2.56"/>
      <line class="cls-12" x1="287.43" y1="148.78" x2="325.12" y2="125.53"/>
      <path class="cls-3" d="m350.03,120.16c15.92,17,49.18,17,49.18,17"/>
      <circle class="cls-11" cx="408.1" cy="140.72" r="4.62"/>
      <circle class="cls-3" cx="418.05" cy="146.17" r="2.02"/>
      <line class="cls-10" x1="420.07" y1="150.98" x2="429.58" y2="160.15"/>
      <line class="cls-10" x1="448.67" y1="162.59" x2="451.54" y2="159.74"/>
      <line class="cls-10" x1="445" y1="158.48" x2="445.82" y2="154.44"/>
      <line class="cls-10" x1="448.87" y1="179.1" x2="451.54" y2="181.55"/>
      <line class="cls-10" x1="434.03" y1="189.68" x2="416.03" y2="246.81"/>
      <circle class="cls-14" cx="412.95" cy="254.52" r="2.24"/>
      <circle class="cls-14" cx="404.63" cy="255.92" r="3.6"/>
      <line class="cls-12" x1="405.92" y1="284.21" x2="402.25" y2="302.39"/>
      <circle class="cls-11" cx="406.01" cy="306.34" r="1.22"/>
      <line class="cls-3" x1="345.26" y1="309.32" x2="386.17" y2="315.89"/>
      <line class="cls-4" x1="335.93" y1="315.05" x2="337.25" y2="318.91"/>
      <line class="cls-4" x1="338.36" y1="314.39" x2="341.51" y2="316.04"/>
      <path class="cls-4" d="m389.02,326.09c-14.07,27.37-52.42,42.71-52.42,42.71"/>
    </g>
  </g>
</svg>