<?xml version="1.0" encoding="UTF-8"?>
<svg id="_레이어_2" data-name="레이어 2" xmlns="http://www.w3.org/2000/svg" viewBox="0 0 522.12 400.58">
  <defs>
    <style>
      .cls-1, .cls-2, .cls-3, .cls-4, .cls-5, .cls-6, .cls-7, .cls-8, .cls-9, .cls-10, .cls-11, .cls-12, .cls-13 {
        stroke: #fff;
      }

      .cls-1, .cls-2, .cls-3, .cls-4, .cls-11, .cls-13 {
        stroke-linejoin: round;
      }

      .cls-1, .cls-2, .cls-3, .cls-5, .cls-13 {
        stroke-linecap: round;
      }

      .cls-1, .cls-6, .cls-8, .cls-11, .cls-12, .cls-14, .cls-13 {
        fill: #fff;
      }

      .cls-2, .cls-3, .cls-4, .cls-5, .cls-7, .cls-9, .cls-10 {
        fill: none;
      }

      .cls-3 {
        stroke-dasharray: 0 0 1 4;
      }

      .cls-3, .cls-9 {
        stroke-width: 2px;
      }

      .cls-4 {
        stroke-width: 1.5px;
      }

      .cls-5, .cls-6, .cls-7, .cls-8, .cls-9, .cls-10, .cls-12 {
        stroke-miterlimit: 10;
      }

      .cls-6 {
        stroke-width: .5px;
      }

      .cls-7, .cls-12, .cls-13 {
        stroke-width: .75px;
      }

      .cls-14 {
        stroke-width: 0px;
      }
    </style>
  </defs>
  <g id="_레이어_2-2" data-name="레이어 2">
    <g>
      <path class="cls-14" d="m192.45,13.53h-6.12c-1.11,0-2.01-.92-2.01-2.06V1.56c0-.28-.22-.51-.49-.51s-.49.23-.49.51v9.91c0,1.14-.9,2.06-2.01,2.06h-6.12c-.27,0-.49.23-.49.51s.22.51.49.51h6.12c1.11,0,2.01.92,2.01,2.06v9.84c0,.28.22.51.49.51s.49-.23.49-.51v-9.84c0-1.14.9-2.06,2.01-2.06h6.12c.27,0,.49-.23.49-.51s-.22-.51-.49-.51Z"/>
      <path class="cls-6" d="m203.51,8.51h-4.17c-.75,0-1.37-.61-1.37-1.37V.58c0-.19-.15-.33-.33-.33s-.33.15-.33.33v6.56c0,.75-.61,1.37-1.37,1.37h-4.17c-.19,0-.33.15-.33.33s.15.33.33.33h4.17c.75,0,1.37.61,1.37,1.37v6.52c0,.19.15.33.33.33s.33-.15.33-.33v-6.52c0-.75.61-1.37,1.37-1.37h4.17c.19,0,.33-.15.33-.33s-.15-.33-.33-.33Z"/>
      <line class="cls-2" x1="498.47" y1="143.88" x2="498.47" y2="166.71"/>
      <line class="cls-2" x1="492.52" y1="155.29" x2="504.43" y2="155.29"/>
      <line class="cls-2" x1="509.77" y1="157.66" x2="509.77" y2="180.49"/>
      <line class="cls-2" x1="504.43" y1="169.07" x2="515.11" y2="169.07"/>
      <circle class="cls-1" cx="518.66" cy="148.25" r="2.96"/>
      <line class="cls-2" x1="248.39" y1="55.36" x2="480.47" y2="151.21"/>
      <circle class="cls-14" cx="174.51" cy="58.72" r="5.33"/>
      <circle class="cls-14" cx="162.31" cy="66.78" r="2.73"/>
      <circle class="cls-14" cx="148.78" cy="81.85" r="9.81"/>
      <path class="cls-12" d="m132.98,56.29q-11.29,0-11.28-15.74h0s0,0,0,0q0,15.75-11.28,15.74h0s0,0,0,0q11.29,0,11.28,15.74h0s0,0,0,0q0-15.75,11.28-15.74h0s0,0,0,0Z"/>
      <path class="cls-7" d="m87.72,81.85q-14.89,0-14.89-15.74h0s0,0,0,0q0,15.75-14.89,15.74h0s0,0,0,0q14.89,0,14.89,15.74h0s0,0,0,0q0-15.75,14.89-15.74h0s0,0,0,0Z"/>
      <circle class="cls-14" cx="132.25" cy="67.55" r="3.73"/>
      <circle class="cls-7" cx="90.98" cy="74.53" r="3.25"/>
      <circle class="cls-7" cx="103.14" cy="63.77" r="5.27"/>
      <line class="cls-10" x1="65.37" y1="103.28" x2="27.39" y2="209.41"/>
      <polygon class="cls-4" points="19.36 212.89 16.67 239.2 32.4 220.05 9.84 224.79 33.02 235.91 19.36 212.89"/>
      <circle class="cls-14" cx="6.67" cy="217.6" r="1.64"/>
      <circle class="cls-14" cx="2.52" cy="225.35" r="2.52"/>
      <line class="cls-10" x1="38.4" y1="226.05" x2="80" y2="215.96"/>
      <path class="cls-14" d="m122.35,215.9c3.94-1.08,3.94-5.09,0-6.16-.04,0-.07-.02-.11-.03-2.41-.65-4.69-1.13-6.73-1.47-1.27-.21-2.2-.94-2.38-1.85-.79-4.04-3.94-13.22-5.21-14.95-.55-.75-2.01-.75-2.56,0-1.27,1.74-4.42,10.91-5.21,14.95-.18.91-1.11,1.64-2.38,1.85-2.04.34-4.31.82-6.73,1.47-.05.01-.1.03-.15.04-3.93,1.07-3.93,5.07,0,6.14.05.01.1.03.15.04,2.42.65,4.69,1.13,6.73,1.47,1.26.21,2.2.94,2.38,1.85.81,4.07,4.05,13.4,5.37,15.17.49.65,1.76.65,2.24,0,1.32-1.77,4.56-11.1,5.37-15.17.18-.91,1.12-1.63,2.38-1.85,2.04-.34,4.32-.82,6.73-1.47.04,0,.07-.02.11-.03Z"/>
      <circle class="cls-14" cx="122.33" cy="193.98" r="2.98"/>
      <circle class="cls-14" cx="83.97" cy="225.35" r="2.69"/>
      <line class="cls-10" x1="121.69" y1="228.04" x2="144.13" y2="250.6"/>
      <circle class="cls-8" cx="152.41" cy="257.84" r="3.63"/>
      <circle class="cls-8" cx="162.91" cy="274.02" r="7.87"/>
      <path class="cls-10" d="m172.05,286.66c18.42,27.96,15.71,64.78,15.71,64.78"/>
      <g>
        <path class="cls-13" d="m174.9,373.14l-4.98-4.99c-.31-.31-.81-.31-1.12,0s-.31.81,0,1.12l4.97,4.99c.33-.43.72-.8,1.13-1.12Z"/>
        <path class="cls-13" d="m179.46,371.92l.02-15.27c0-.44-.35-.8-.79-.8s-.8.35-.8.79l-.02,15.27c.52-.07,1.06-.06,1.59,0Z"/>
        <path class="cls-13" d="m192.22,377.26h-7.45c.07.51.06,1.05,0,1.58h7.45c.44.01.8-.34.8-.78s-.35-.8-.79-.8Z"/>
        <path class="cls-13" d="m183.54,374.28l4.99-4.98c.31-.31.31-.81,0-1.12s-.81-.31-1.12,0l-4.99,4.98c.43.33.8.71,1.12,1.13Z"/>
        <path class="cls-13" d="m182.41,382.93l4.97,4.99c.15.16.36.23.56.23s.41-.08.56-.23c.31-.31.31-.81,0-1.12l-4.98-5c-.33.43-.7.81-1.12,1.13Z"/>
        <path class="cls-13" d="m172.53,377.23h-7.44c-.44-.01-.8.34-.8.78s.35.8.79.8h7.45c-.07-.51-.07-1.05,0-1.58Z"/>
        <path class="cls-13" d="m177.85,384.14l-.02,15.27c0,.44.35.8.79.8s.8-.35.8-.79l.02-15.28c-.53.07-1.06.08-1.59,0Z"/>
        <path class="cls-13" d="m173.77,381.78l-5,4.98c-.31.31-.31.81,0,1.12.15.16.36.23.56.23s.41-.08.56-.23l5.02-5c-.24-.18-.48-.37-.7-.58-.16-.17-.31-.34-.45-.53Z"/>
      </g>
      <path class="cls-14" d="m207.48,375.74c.16-1.17-.67-2.26-1.85-2.41s-2.26.67-2.41,1.85c-.13.99.45,1.92,1.34,2.27.17.05.33.1.51.12s.35.02.53.02c.95-.11,1.75-.85,1.88-1.85Z"/>
      <path class="cls-14" d="m202.46,369.92c.23-1.78-1.02-3.41-2.8-3.65s-3.41,1.02-3.65,2.8c-.2,1.5.68,2.9,2.03,3.44.25.08.51.15.78.18s.53.04.8.02c1.44-.17,2.65-1.29,2.85-2.79Z"/>
      <path class="cls-11" d="m244.32,45.93h0c-11.01,0-17.89,0-22.2-2,.43-3.63,2-7.15,4.76-9.96h0s0,0,0,0c-2.74,2.68-6.16,4.25-9.69,4.72-2.26-5.35-2.27-14.65-2.26-30.86h0s0,0,0,0c0,16.21,0,25.51-2.27,30.86-3.53-.47-6.94-2.03-9.67-4.7h0c2.75,2.81,4.32,6.32,4.74,9.95-4.31,2-11.2,1.99-22.2,1.99h0s0,.02,0,.02c11.01,0,17.89,0,22.2,1.99-.43,3.63-2,7.15-4.76,9.96h0s0,0,0,0c2.74-2.68,6.16-4.25,9.69-4.72,2.26,5.35,2.27,14.65,2.26,30.86h0s0,0,0,0c0-16.21,0-25.51,2.27-30.86,3.53.47,6.94,2.03,9.67,4.7h0c-2.75-2.81-4.32-6.32-4.74-9.95,4.31-2,11.2-1.99,22.2-1.99h0Z"/>
      <line class="cls-3" x1="214.9" y1="91.67" x2="222.5" y2="138.4"/>
      <path class="cls-14" d="m236.71,155.29c-4.95-.07-8.95-6.11-9-13.57h0s0,0,0,0c-.05,7.46-4.05,13.5-9,13.57h0s0,0,0,0c4.95.07,8.95,6.11,9,13.57h0s0,0,0,0c.05-7.46,4.05-13.5,9-13.57h0s0,0,0,0Z"/>
      <line class="cls-9" x1="236.71" y1="168.87" x2="278.78" y2="209.77"/>
      <circle class="cls-8" cx="286.45" cy="215" r="3.82"/>
      <circle class="cls-8" cx="298.93" cy="225.86" r="7.04"/>
      <line class="cls-5" x1="309.95" y1="219.86" x2="313.64" y2="216.15"/>
      <line class="cls-5" x1="310.45" y1="224.15" x2="317.48" y2="222.45"/>
    </g>
  </g>
</svg>