<?xml version="1.0" encoding="UTF-8"?>
<svg id="_레이어_2" data-name="레이어 2" xmlns="http://www.w3.org/2000/svg" viewBox="0 0 445.73 210.6">
  <defs>
    <style>
      .cls-1, .cls-2, .cls-3 {
        fill: none;
        stroke: #fff;
        stroke-miterlimit: 10;
      }

      .cls-1, .cls-3 {
        stroke-linecap: round;
        stroke-width: 2px;
      }

      .cls-3 {
        stroke-dasharray: 0 0 2.02 4.04;
      }

      .cls-4 {
        fill: #fff;
        stroke-width: 0px;
      }
    </style>
  </defs>
  <g id="_레이어_2-2" data-name="레이어 2">
    <g>
      <path class="cls-4" d="m33.17,117.39c-.49,6.66-.17,22.35-9.91,37.33-4.96,7.63-10.57,10.99-13.8,12.48,2.98.88,7.77,2.83,12.18,8.32,9.02,11.24,11.56,32.02,11.54,35.08-.22-3.9,1.5-23.54,8.54-35.86,3.01-5.26,8.91-8.47,11.73-9.38-6.2-3.78-7.61-5.21-11.58-10.67-7.42-10.22-8.13-32.21-8.71-37.31Z"/>
      <g>
        <path class="cls-1" d="m55.03,150.54c.33-.07.65-.13.98-.2"/>
        <path class="cls-3" d="m59.97,149.5c71.65-15.46,134.95-45.58,193.08-103.31"/>
        <path class="cls-1" d="m254.48,44.76c.24-.24.47-.47.71-.71"/>
      </g>
      <circle class="cls-4" cx="3.94" cy="130.51" r="3.94"/>
      <circle class="cls-4" cx="441.67" cy="51.29" r="2.21"/>
      <path class="cls-2" d="m298.64,35.14q-26.35,0-26.34-26.34h0s0,0,0,0q0,26.35-26.34,26.34h0s0,.01,0,.01q26.35,0,26.34,26.34h0s0,0,0,0q0-26.35,26.34-26.34h0s0-.01,0-.01Z"/>
      <path class="cls-4" d="m445.73,58.1q-18.2,0-18.2-23.58h0s0,0,0,0q0,23.58-18.2,23.58h0s0,.01,0,.01q18.2,0,18.2,23.58h0s0,0,0,0q0-23.58,18.2-23.58h0s0-.01,0-.01Z"/>
      <path class="cls-4" d="m306.83,15.75q-15.75,0-15.74-15.74h0s0,0,0,0q0,15.75-15.74,15.74h0s0,0,0,0q15.75,0,15.74,15.74h0s0,0,0,0q0-15.75,15.74-15.74h0s0,0,0,0Z"/>
      <path class="cls-4" d="m434.93,50.69c-4.11,4.03-10.69,4.04-14.8.01h0c4.02,4.11,4.02,10.69-.01,14.8h0s0,0,0,0c4.11-4.03,10.69-4.04,14.8-.01h0c-4.02-4.11-4.02-10.69.01-14.8h0s0,0,0,0Z"/>
      <line class="cls-2" x1="303.63" y1="29.42" x2="366.35" y2="18.72"/>
      <circle class="cls-4" cx="383.42" cy="18.54" r="9.7"/>
      <path class="cls-4" d="m415.9,46.55c0,1.16.95,2.11,2.11,2.11s2.11-.95,2.11-2.11c0-.99-.68-1.81-1.6-2.04-.17-.03-.34-.05-.51-.05s-.35.02-.51.05c-.91.23-1.6,1.05-1.6,2.04Z"/>
      <path class="cls-4" d="m393.12,28.23c0,1.16.95,2.11,2.11,2.11s2.11-.95,2.11-2.11c0-.99-.68-1.81-1.6-2.04-.17-.03-.34-.05-.51-.05s-.35.02-.51.05c-.91.23-1.6,1.05-1.6,2.04Z"/>
      <path class="cls-4" d="m394.18,33.98c0,.87.71,1.58,1.58,1.58s1.58-.71,1.58-1.58c0-.74-.51-1.35-1.2-1.53-.13-.02-.25-.04-.39-.04s-.26.02-.39.04c-.69.17-1.2.79-1.2,1.53Z"/>
      <path class="cls-4" d="m406.89,44.82c-1.35,1.82-.96,4.4.86,5.75s4.4.96,5.75-.86.96-4.4-.86-5.75-4.4-.96-5.75.86Zm6.33,4.68c-.96,1.3-2.79,1.57-4.09.61-1.16-.86-1.5-2.4-.88-3.65.06-.16.14-.31.25-.46s.23-.26.36-.37c1.01-.96,2.59-1.09,3.74-.23,1.3.96,1.57,2.79.61,4.09Z"/>
      <path class="cls-4" d="m406.75,40.93c.45-1.21-.16-2.56-1.37-3.02s-2.56.16-3.02,1.37.16,2.56,1.37,3.02,2.56-.16,3.02-1.37Zm-4.2-1.58c.32-.86,1.29-1.3,2.15-.97.77.29,1.19,1.08,1.05,1.86-.01.1-.03.19-.07.29s-.09.18-.14.26c-.4.68-1.25,1-2.02.71-.86-.32-1.3-1.29-.97-2.15Z"/>
    </g>
  </g>
</svg>