<?xml version="1.0" encoding="UTF-8"?>
<svg id="_레이어_2" data-name="레이어 2" xmlns="http://www.w3.org/2000/svg" viewBox="0 0 333.77 394.95">
  <defs>
    <style>
      .cls-1 {
        stroke-dasharray: 0 0 1 4;
      }

      .cls-1, .cls-2, .cls-3, .cls-4, .cls-5 {
        stroke: #fff;
        stroke-miterlimit: 10;
      }

      .cls-1, .cls-3 {
        stroke-linecap: round;
      }

      .cls-1, .cls-3, .cls-4 {
        stroke-width: 2px;
      }

      .cls-1, .cls-3, .cls-4, .cls-5 {
        fill: none;
      }

      .cls-2 {
        stroke-width: .5px;
      }

      .cls-2, .cls-6 {
        fill: #fff;
      }

      .cls-6 {
        stroke-width: 0px;
      }
    </style>
  </defs>
  <g id="_레이어_2-2" data-name="레이어 2">
    <g>
      <path class="cls-6" d="m289.63,245.02q-28.66,0-28.66-37.12h0s0,0,0,0q0,37.13-28.66,37.12h0s0,.02,0,.02q28.66,0,28.66,37.12h0s0,0,0,0q0-37.13,28.66-37.12h0s0-.02,0-.02Z"/>
      <path class="cls-6" d="m272.63,233.37c-6.48,6.35-16.83,6.36-23.3.02h0s0,0,0,0c6.34,6.46,6.33,16.82-.02,23.3h0s0,0,0,0c6.48-6.35,16.83-6.36,23.3-.02h0s0,0,0,0c-6.34-6.46-6.33-16.82.02-23.3h0s0,0,0,0Z"/>
      <path class="cls-2" d="m133.44,97.1c-3.53-.05-6.38-3.77-6.41-8.39h0s0,0,0,0c-.04,4.61-2.89,8.34-6.41,8.39h0s0,0,0,0c3.53.05,6.38,3.77,6.41,8.39h0s0,0,0,0c.04-4.61,2.89-8.34,6.41-8.39h0s0,0,0,0Z"/>
      <path class="cls-2" d="m333.5,378.68c-3.53-.09-6.38-7.02-6.41-15.6h0s0,0,0,0c-.04,8.58-2.89,15.51-6.41,15.6h0s0,0,0,0c3.53.09,6.38,7.02,6.41,15.6h0s0,0,0,0c.04-8.58,2.89-15.51,6.41-15.6h0s0,0,0,0Z"/>
      <path class="cls-5" d="m13.37,223.02c-3.53-.09-6.38-7.02-6.41-15.6h0s0,0,0,0c-.04,8.58-2.89,15.51-6.41,15.6h0s0,0,0,0c3.53.09,6.38,7.02,6.41,15.6h0s0,0,0,0c.04-8.58,2.89-15.51,6.41-15.6h0s0,0,0,0Z"/>
      <path class="cls-2" d="m142.62,88.84c-2.73-.04-4.93-2.92-4.96-6.48h0s0,0,0,0c-.03,3.57-2.23,6.45-4.96,6.48h0s0,0,0,0c2.73.04,4.93,2.92,4.96,6.48h0s0,0,0,0c.03-3.57,2.23-6.45,4.96-6.48h0s0,0,0,0Z"/>
      <path class="cls-2" d="m204.91,304.02c-2.44-.03-4.41-2.61-4.43-5.8h0s0,0,0,0c-.02,3.19-1.99,5.76-4.43,5.8h0s0,0,0,0c2.44.03,4.41,2.61,4.43,5.8h0s0,0,0,0c.02-3.19,1.99-5.76,4.43-5.8h0s0,0,0,0Z"/>
      <path class="cls-6" d="m96.4,10.33c-1.82-.47-4.65-1.12-6.78-1.44.38-.64,3.1-3.69,2.67-3.96-.43-.26-4.04,1.95-4.53,2.36-.05-1.26-.34-3.6-1.59-7.14-.08-.22-.47-.22-.54,0-1.25,3.54-1.54,5.87-1.59,7.14-.49-.41-4.1-2.62-4.53-2.36-.43.26,2.29,3.31,2.67,3.96-2.12.32-4.94.96-6.76,1.43-.26.07-.26.36,0,.43,1.82.47,4.64,1.11,6.76,1.43-.38.64-3.1,3.69-2.67,3.96.43.26,4.04-1.95,4.53-2.36.05,1.26.34,3.6,1.59,7.14.08.22.47.22.54,0,1.25-3.54,1.54-5.87,1.59-7.14.49.41,4.1,2.62,4.53,2.36.43-.26-2.29-3.31-2.67-3.96,2.13-.32,4.97-.96,6.78-1.44.25-.07.25-.35,0-.42Z"/>
      <circle class="cls-6" cx="279.39" cy="233.85" r="1.94"/>
      <circle class="cls-6" cx="286.05" cy="230.71" r="3.23"/>
      <path class="cls-6" d="m111.56,137.89h-1.63c-1.55,0-2.8-1.25-2.8-2.8v-12.2h-1.53v12.2c0,1.55-1.25,2.8-2.8,2.8h-1.63v1.53h1.63c1.55,0,2.8,1.25,2.8,2.8v12.2h1.53v-12.2c0-1.55,1.25-2.8,2.8-2.8h1.63v-1.53Z"/>
      <path class="cls-6" d="m120.72,145.82h-1.33c-1.71,0-3.1-1.39-3.1-3.1v-11.9h-1.53v11.9c0,1.71-1.39,3.1-3.1,3.1h-1.33v1.53h1.33c1.71,0,3.1,1.39,3.1,3.1v11.9h1.53v-11.9c0-1.71,1.39-3.1,3.1-3.1h1.33v-1.53Z"/>
      <line class="cls-3" x1="122.83" y1="109.67" x2="118.39" y2="122.89"/>
      <line class="cls-4" x1="129.71" y1="154.42" x2="242.8" y2="235.84"/>
      <path class="cls-5" d="m226.8,313.91c2.16-2.77,1.81-6.68-.79-8.7-2.6-2.02-6.47-1.41-8.63,1.36-1.83,2.35-1.84,5.5-.23,7.64.32.36.66.71,1.05,1.02s.81.55,1.24.77c2.47,1.04,5.52.26,7.35-2.09Z"/>
      <path class="cls-6" d="m213.17,311.2c-.14-1.09-1.14-1.86-2.22-1.72s-1.86,1.14-1.72,2.22c.12.92.85,1.61,1.73,1.71.16,0,.32,0,.49-.01s.32-.06.47-.11c.83-.32,1.36-1.17,1.25-2.09Z"/>
      <path class="cls-6" d="m211.5,305.97c-.1-.81-.85-1.39-1.66-1.29s-1.39.85-1.29,1.66c.09.69.64,1.2,1.3,1.28.12,0,.24,0,.36,0s.24-.05.35-.08c.62-.24,1.02-.88.93-1.57Z"/>
      <path class="cls-6" d="m27.79,153.73c-.95,3.39.85,6.86,4.02,7.76s6.52-1.14,7.47-4.52c.81-2.87-.38-5.78-2.68-7.16-.43-.22-.88-.41-1.36-.54s-.96-.2-1.44-.24c-2.68-.03-5.21,1.85-6.02,4.71Z"/>
      <path class="cls-6" d="m42.24,152.68c.94.56,2.16.26,2.72-.68s.26-2.16-.68-2.72c-.79-.48-1.79-.33-2.42.3-.11.12-.21.25-.29.39s-.15.29-.21.44c-.26.85.08,1.8.87,2.28Z"/>
      <path class="cls-6" d="m47.38,154.62c.7.42,1.62.2,2.04-.51s.2-1.62-.51-2.04c-.59-.36-1.34-.25-1.81.22-.08.09-.15.19-.22.29s-.11.22-.16.33c-.19.64.06,1.35.65,1.71Z"/>
      <path class="cls-6" d="m10.43,32.66c-1.08.17-1.82,1.19-1.65,2.27s1.19,1.82,2.27,1.65c.92-.14,1.58-.9,1.66-1.78,0-.16,0-.32-.03-.49s-.07-.32-.12-.47c-.35-.82-1.21-1.33-2.13-1.18Z"/>
      <path class="cls-6" d="m5.25,34.49c-.81.13-1.36.89-1.24,1.7s.89,1.36,1.7,1.24c.69-.11,1.18-.67,1.24-1.34,0-.12,0-.24-.02-.36s-.05-.24-.09-.35c-.26-.61-.91-1-1.6-.89Z"/>
      <line class="cls-5" x1="229.21" y1="316.45" x2="235" y2="317.87"/>
      <line class="cls-5" x1="228.21" y1="319.58" x2="231.93" y2="322.96"/>
      <path class="cls-5" d="m56.02,150.98c9.96,2.36,29.94,0,38.42-6.81"/>
      <line class="cls-1" x1="92.79" y1="22.12" x2="124.12" y2="82.36"/>
      <line class="cls-5" x1="33.54" y1="18.99" x2="70.91" y2="13.09"/>
      <g>
        <path class="cls-6" d="m13.06,18.8l-5.36-2.04c-.33-.13-.78,0-1,.28s-.12.62.21.74l5.36,2.04c.21-.37.49-.71.8-1.02Z"/>
        <path class="cls-6" d="m16.88,16.84l-2.86-10.09c-.08-.29-.46-.44-.86-.33s-.64.44-.56.73l2.86,10.09c.45-.18.93-.31,1.41-.4Z"/>
        <path class="cls-6" d="m29.23,17.14l-6.62,1.87c.16.33.26.68.3,1.05l6.62-1.88c.39-.11.64-.44.56-.73s-.46-.44-.86-.33Z"/>
        <path class="cls-6" d="m20.96,17.37l3.5-4.55c.22-.28.12-.62-.21-.74s-.78,0-1,.28l-3.5,4.55c.44.11.85.27,1.21.46Z"/>
        <path class="cls-6" d="m21.58,23.37l5.36,2.04c.17.06.36.06.54.01s.35-.15.46-.3c.22-.28.12-.62-.21-.74l-5.37-2.04c-.21.37-.47.71-.78,1.03Z"/>
        <path class="cls-6" d="m11.73,22.1l-6.62,1.87c-.39.11-.64.44-.56.73s.46.44.86.33l6.62-1.88c-.16-.33-.27-.68-.31-1.05Z"/>
        <path class="cls-6" d="m17.76,25.32l2.86,10.09c.08.29.46.44.86.33s.64-.44.56-.73l-2.86-10.1c-.45.18-.93.32-1.41.41Z"/>
        <path class="cls-6" d="m13.68,24.8l-3.5,4.55c-.22.28-.12.62.21.74.17.06.36.06.54.01s.35-.15.46-.3l3.52-4.57c-.25-.06-.49-.13-.73-.2-.17-.07-.34-.15-.5-.24Z"/>
      </g>
      <path class="cls-5" d="m30.54,169.57c0,10.85-1.6,25.56-16.66,40.1"/>
      <line class="cls-5" x1="22.61" y1="238.64" x2="186.25" y2="298.22"/>
      <line class="cls-4" x1="240.73" y1="324.91" x2="312.99" y2="373.75"/>
      <line class="cls-5" x1="271.19" y1="261.11" x2="320.67" y2="355.69"/>
    </g>
  </g>
</svg>