<?xml version="1.0" encoding="UTF-8"?>
<svg id="_레이어_2" data-name="레이어 2" xmlns="http://www.w3.org/2000/svg" viewBox="0 0 389.4 362.25">
  <defs>
    <style>
      .cls-1, .cls-2, .cls-3, .cls-4, .cls-5, .cls-6, .cls-7, .cls-8, .cls-9, .cls-10 {
        stroke: #fff;
      }

      .cls-1, .cls-2, .cls-4 {
        stroke-linejoin: round;
      }

      .cls-1, .cls-2, .cls-4, .cls-7, .cls-10 {
        stroke-linecap: round;
      }

      .cls-1, .cls-3, .cls-5, .cls-7, .cls-9, .cls-11 {
        fill: #fff;
      }

      .cls-2, .cls-4, .cls-6, .cls-8, .cls-10 {
        fill: none;
      }

      .cls-3 {
        stroke-width: .5px;
      }

      .cls-3, .cls-5, .cls-6, .cls-7, .cls-8, .cls-9, .cls-10 {
        stroke-miterlimit: 10;
      }

      .cls-4 {
        stroke-dasharray: 0 0 2 4;
      }

      .cls-4, .cls-6 {
        stroke-width: 2px;
      }

      .cls-7, .cls-9, .cls-10 {
        stroke-width: .75px;
      }

      .cls-11 {
        stroke-width: 0px;
      }
    </style>
  </defs>
  <g id="_레이어_2-2" data-name="레이어 2">
    <g>
      <path class="cls-9" d="m365.01,27.73c-4.24-2.21,4.2-26.49,9.41-27.33,5.41-.88,14.22,22.2,10.73,25.74-3.82,3.86-25.42-10.58-24.62-15.42.8-4.87,26.16-5.9,28.36-1.47,2.05,4.14-19.35,20.85-23.88,18.49Z"/>
      <path class="cls-8" d="m159.58,355.1c-2.62-2.38,7.97-18.14,11.85-17.77,4.03.39,6,18.54,2.84,20.4-3.45,2.04-16.18-12.33-14.7-15.64,1.49-3.33,19.8.69,20.54,4.27.69,3.34-17.74,11.27-20.53,8.73Z"/>
      <line class="cls-6" x1="374.77" y1="33.24" x2="370.34" y2="57.37"/>
      <path class="cls-11" d="m374.73,73.58h-6.12c-1.11,0-2.01-.92-2.01-2.06v-9.91c0-.28-.22-.51-.49-.51s-.49.23-.49.51v9.91c0,1.14-.9,2.06-2.01,2.06h-6.12c-.27,0-.49.23-.49.51s.22.51.49.51h6.12c1.11,0,2.01.92,2.01,2.06v9.84c0,.28.22.51.49.51s.49-.23.49-.51v-9.84c0-1.14.9-2.06,2.01-2.06h6.12c.27,0,.49-.23.49-.51s-.22-.51-.49-.51Z"/>
      <path class="cls-3" d="m385.8,68.56h-4.17c-.75,0-1.37-.61-1.37-1.37v-6.56c0-.19-.15-.33-.33-.33s-.33.15-.33.33v6.56c0,.75-.61,1.37-1.37,1.37h-4.17c-.19,0-.33.15-.33.33s.15.33.33.33h4.17c.75,0,1.37.61,1.37,1.37v6.52c0,.19.15.33.33.33s.33-.15.33-.33v-6.52c0-.75.61-1.37,1.37-1.37h4.17c.19,0,.33-.15.33-.33s-.15-.33-.33-.33Z"/>
      <circle class="cls-3" cx="385.88" cy="59.05" r="1.75"/>
      <line class="cls-8" x1="232.01" y1="196.96" x2="353.71" y2="86.99"/>
      <line class="cls-6" x1="365.12" y1="97.8" x2="334.68" y2="292.9"/>
      <path class="cls-1" d="m232.04,211.86h0c-6.05,0-9.83,0-12.2-1.1.23-2,1.1-3.93,2.61-5.48h0s0,0,0,0c-1.51,1.48-3.38,2.33-5.33,2.59-1.24-2.94-1.25-8.05-1.24-16.96h0s0,0,0,0c0,8.91,0,14.02-1.24,16.96-1.94-.26-3.81-1.11-5.31-2.58h0c1.51,1.54,2.37,3.48,2.61,5.47-2.37,1.1-6.15,1.1-12.2,1.09h0s0,.01,0,.01c6.05,0,9.83,0,12.2,1.09-.23,2-1.1,3.93-2.61,5.48h0s0,0,0,0c1.51-1.48,3.38-2.33,5.33-2.59,1.24,2.94,1.25,8.05,1.24,16.96h0s0,0,0,0c0-8.91,0-14.02,1.24-16.96,1.94.26,3.81,1.11,5.31,2.58h0c-1.51-1.54-2.37-3.48-2.61-5.47,2.37-1.1,6.15-1.1,12.2-1.09h0Z"/>
      <line class="cls-2" x1="192.26" y1="217.38" x2="192.26" y2="233.48"/>
      <line class="cls-2" x1="187.75" y1="225.43" x2="196.77" y2="225.43"/>
      <path class="cls-4" d="m87.73,270.81c54.26-8.88,92.06-41.4,92.06-41.4"/>
      <path class="cls-11" d="m76.32,281.86c2.26-.66,2.26-3.11,0-3.77-.02,0-.04-.01-.06-.02-1.38-.4-2.69-.69-3.86-.9-.73-.13-1.26-.58-1.37-1.13-.45-2.48-2.26-8.09-2.99-9.15-.31-.46-1.15-.46-1.47,0-.73,1.06-2.53,6.68-2.99,9.15-.1.56-.64,1-1.37,1.13-1.17.21-2.47.5-3.86.9-.03,0-.06.02-.09.02-2.25.66-2.25,3.1,0,3.76.03,0,.06.02.09.02,1.39.4,2.69.69,3.86.9.73.13,1.26.57,1.36,1.13.46,2.49,2.32,8.2,3.08,9.29.28.4,1.01.4,1.29,0,.76-1.08,2.61-6.79,3.08-9.29.1-.56.64-1,1.36-1.13,1.17-.21,2.48-.5,3.86-.9.02,0,.04-.01.06-.02Z"/>
      <circle class="cls-11" cx="77.63" cy="268.44" r="1.82"/>
      <circle class="cls-11" cx="82.42" cy="273" r="1.65"/>
      <line class="cls-8" x1="55.21" y1="290.89" x2="36.93" y2="305.9"/>
      <path class="cls-11" d="m40.03,321.78c-3.43-1.01-8.8-2.38-12.82-3.07.71-1.37,5.86-7.89,5.05-8.45-.8-.55-7.63,4.17-8.56,5.04-.09-2.7-.64-7.69-3-15.25-.15-.47-.88-.47-1.03,0-2.36,7.56-2.91,12.55-3,15.25-.93-.87-7.76-5.6-8.56-5.04-.82.56,4.33,7.08,5.05,8.45-4,.68-9.34,2.04-12.78,3.06-.49.14-.49.77,0,.91,3.43,1.01,8.77,2.37,12.78,3.06-.71,1.37-5.86,7.89-5.05,8.45.8.55,7.63-4.17,8.56-5.04.09,2.7.64,7.69,3,15.24.15.47.88.47,1.03,0,2.36-7.56,2.91-12.54,3-15.24.93.87,7.76,5.6,8.56,5.04.82-.56-4.33-7.08-5.05-8.45,4.02-.69,9.39-2.06,12.82-3.07.48-.14.48-.75,0-.89Z"/>
      <line class="cls-5" x1="46.07" y1="327.07" x2="71.79" y2="328.18"/>
      <circle class="cls-5" cx="83.59" cy="326.36" r="4.14"/>
      <circle class="cls-5" cx="103.2" cy="331" r="8.77"/>
      <circle class="cls-5" cx="148.82" cy="338.39" r="4.14"/>
      <circle class="cls-5" cx="161.8" cy="330.94" r="3.31"/>
      <line class="cls-6" x1="117.62" y1="337.33" x2="136.95" y2="339.77"/>
      <line class="cls-8" x1="192.26" y1="347.63" x2="287.15" y2="347.63"/>
      <path class="cls-8" d="m317.03,344.4c-5.56,2.66-12.7-.54-16.06-7.21h0s0,0,0,0c3.25,6.72,1.44,14.34-4.05,17.13h0s0,0,0,0c5.56-2.66,12.7.54,16.06,7.21h0s0,0,0,0c-3.25-6.72-1.44-14.34,4.05-17.13h0s0,0,0,0Z"/>
      <path class="cls-5" d="m339.73,306.09c-4.38-.05-7.93-4.01-7.97-8.9h0s0,0,0,0c-.04,4.89-3.59,8.85-7.97,8.9h0s0,0,0,0c4.38.05,7.93,4.01,7.97,8.9h0s0,0,0,0c.04-4.89,3.59-8.85,7.97-8.9h0s0,0,0,0Z"/>
      <line class="cls-10" x1="327.66" y1="343.41" x2="320.15" y2="348.93"/>
      <line class="cls-10" x1="320.63" y1="341.32" x2="326.93" y2="350.64"/>
      <line class="cls-10" x1="324.16" y1="342.15" x2="323.87" y2="349.87"/>
      <line class="cls-10" x1="320.31" y1="345.28" x2="327.7" y2="346.81"/>
      <line class="cls-10" x1="315.76" y1="331.91" x2="308.24" y2="337.42"/>
      <line class="cls-10" x1="308.72" y1="329.82" x2="315.02" y2="339.13"/>
      <circle class="cls-7" cx="322.67" cy="328.25" r="3.17"/>
      <circle class="cls-7" cx="325.64" cy="319.77" r="1.86"/>
    </g>
  </g>
</svg>