<?xml version="1.0" encoding="UTF-8"?>
<svg id="_레이어_2" data-name="레이어 2" xmlns="http://www.w3.org/2000/svg" viewBox="0 0 411.78 312.64">
  <defs>
    <style>
      .cls-1 {
        stroke-dasharray: 0 0 1.83 3.66;
      }

      .cls-1, .cls-2, .cls-3, .cls-4, .cls-5, .cls-6, .cls-7, .cls-8, .cls-9, .cls-10, .cls-11, .cls-12, .cls-13 {
        stroke: #fff;
      }

      .cls-1, .cls-2, .cls-3, .cls-4, .cls-5, .cls-6, .cls-7, .cls-8, .cls-9, .cls-11, .cls-13 {
        fill: none;
      }

      .cls-1, .cls-2, .cls-4, .cls-5, .cls-7, .cls-8, .cls-9, .cls-13 {
        stroke-miterlimit: 10;
      }

      .cls-1, .cls-5, .cls-6, .cls-9, .cls-11, .cls-12 {
        stroke-linecap: round;
      }

      .cls-1, .cls-5, .cls-7, .cls-9 {
        stroke-width: 2px;
      }

      .cls-2 {
        stroke-width: 1.5px;
      }

      .cls-3, .cls-6, .cls-10, .cls-11, .cls-12 {
        stroke-linejoin: round;
      }

      .cls-4, .cls-12 {
        stroke-width: .75px;
      }

      .cls-6 {
        stroke-dasharray: 0 0 2.3 3.83;
      }

      .cls-6, .cls-11 {
        stroke-width: 3px;
      }

      .cls-9 {
        stroke-dasharray: 0 0 2.08 4.15;
      }

      .cls-10, .cls-14, .cls-12 {
        fill: #fff;
      }

      .cls-14 {
        stroke-width: 0px;
      }

      .cls-13 {
        stroke-width: .5px;
      }
    </style>
  </defs>
  <g id="_레이어_2-2" data-name="레이어 2">
    <g>
      <path class="cls-8" d="m168.87,213.81q-9.5,0-9.49-12.01h0s0,0,0,0q0,12.02-9.49,12.01h0s0,0,0,0q9.5,0,9.49,12.01h0s0,0,0,0q0-12.02,9.49-12.01h0s0,0,0,0Z"/>
      <path class="cls-14" d="m291.91,134c-6.03-.06-10.91-4.94-10.97-10.97h0s0,0,0,0c-.06,6.03-4.94,10.91-10.97,10.97h0s0,0,0,0c6.03.06,10.91,4.94,10.97,10.97h0s0,0,0,0c.06-6.03,4.94-10.91,10.97-10.97h0s0,0,0,0Z"/>
      <path class="cls-4" d="m100.81,23.5c-3.53-.05-6.38-3.77-6.41-8.39h0s0,0,0,0c-.04,4.61-2.89,8.34-6.41,8.39h0s0,0,0,0c3.53.05,6.38,3.77,6.41,8.39h0s0,0,0,0c.04-4.61,2.89-8.34,6.41-8.39h0s0,0,0,0Z"/>
      <path class="cls-4" d="m88.81,26.9c-2.44-.03-4.41-2.61-4.43-5.8h0s0,0,0,0c-.02,3.19-1.99,5.76-4.43,5.8h0s0,0,0,0c2.44.03,4.41,2.61,4.43,5.8h0s0,0,0,0c.02-3.19,1.99-5.76,4.43-5.8h0s0,0,0,0Z"/>
      <path class="cls-10" d="m25.86,108.83c-6.97-.1-12.61-7.77-12.68-17.26h0s0,0,0,0c-.07,9.49-5.71,17.17-12.68,17.26h0s0,0,0,0c6.97.1,12.61,7.77,12.68,17.26h0s0,0,0,0c.07-9.49,5.71-17.17,12.68-17.26h0s0,0,0,0Z"/>
      <path class="cls-14" d="m77.27,26.56c-4.67-1.22-11.96-2.87-17.43-3.69.97-1.65,7.97-9.49,6.86-10.17-1.09-.66-10.37,5.02-11.64,6.07-.12-3.25-.88-9.25-4.08-18.35-.2-.56-1.2-.56-1.39,0-3.21,9.09-3.96,15.1-4.08,18.35-1.27-1.05-10.54-6.73-11.64-6.07-1.11.67,5.89,8.51,6.86,10.17-5.44.82-12.7,2.46-17.37,3.68-.67.17-.67.93,0,1.1,4.67,1.22,11.92,2.85,17.37,3.68-.97,1.65-7.97,9.49-6.86,10.17,1.09.66,10.37-5.02,11.64-6.07.12,3.25.88,9.25,4.08,18.34.2.57,1.2.57,1.4,0,3.2-9.09,3.96-15.09,4.08-18.34,1.27,1.05,10.54,6.73,11.64,6.07,1.11-.67-5.89-8.51-6.86-10.17,5.47-.83,12.76-2.47,17.43-3.69.65-.17.65-.9,0-1.07Z"/>
      <path class="cls-4" d="m101.89,205.82c-1.25-.72,1.61-7.95,3.19-8.14,1.65-.2,4.01,6.89,2.91,7.91-1.2,1.12-7.54-3.52-7.24-4.97.3-1.46,7.98-1.45,8.58-.08.57,1.28-6.11,6.05-7.45,5.28Z"/>
      <path class="cls-4" d="m110.49,195.04c-.69-.4.88-4.36,1.75-4.47.9-.11,2.2,3.78,1.6,4.34-.66.61-4.14-1.93-3.97-2.73.17-.8,4.38-.8,4.71-.05.31.7-3.35,3.32-4.09,2.9Z"/>
      <path class="cls-4" d="m113.35,208.43c-2.02-1.16,2.59-12.82,5.14-13.12,2.66-.32,6.48,11.11,4.7,12.76-1.94,1.8-12.17-5.68-11.68-8.02.49-2.36,12.87-2.34,13.85-.14.91,2.06-9.85,9.76-12.01,8.52Z"/>
      <path class="cls-14" d="m327.05,219.65c-1.53-1.76,6.64-11.27,9.15-10.72,2.61.57,2.49,12.61.28,13.59-2.42,1.07-9.65-9.34-8.42-11.39,1.23-2.07,12.92,1.99,13.13,4.39.19,2.24-12.5,6.01-14.14,4.13Z"/>
      <path class="cls-3" d="m399.19,158.75c3.31,1.07,4.75,5.91,3.25,10.88h0s0,0,0,0c1.56-4.95,5.49-8.13,8.82-7.16h0s0,0,0,0c-3.3-1.07-4.75-5.91-3.25-10.88h0s0,0,0,0c-1.56,4.95-5.49,8.13-8.82,7.16h0s0,0,0,0Z"/>
      <line class="cls-13" x1="402.75" y1="154.68" x2="398.48" y2="149.09"/>
      <line class="cls-13" x1="401.65" y1="156.03" x2="397.46" y2="151.1"/>
      <g>
        <path class="cls-12" d="m288.42,255.48l-4.6-4.6c-.29-.29-.75-.29-1.04,0s-.29.75,0,1.04l4.6,4.6c.31-.4.66-.74,1.04-1.03Z"/>
        <path class="cls-12" d="m292.63,254.34v-14.1c0-.41-.33-.73-.73-.73s-.73.33-.73.73v14.1c.48-.06.98-.06,1.47,0Z"/>
        <path class="cls-12" d="m304.43,259.25h-6.88c.06.48.06.98,0,1.47h6.88c.41,0,.73-.33.73-.73s-.33-.73-.73-.73Z"/>
        <path class="cls-12" d="m296.41,256.52l4.61-4.61c.29-.29.29-.75,0-1.04s-.75-.29-1.04,0l-4.6,4.6c.4.31.74.66,1.03,1.04Z"/>
        <path class="cls-12" d="m295.38,264.51l4.6,4.6c.14.14.33.22.52.22s.38-.07.52-.22c.29-.29.29-.75,0-1.04l-4.61-4.61c-.31.4-.65.75-1.03,1.05Z"/>
        <path class="cls-12" d="m286.24,259.25h-6.88c-.41,0-.73.33-.73.73s.33.73.73.73h6.88c-.06-.48-.07-.98,0-1.47Z"/>
        <path class="cls-12" d="m291.17,265.63v14.11c0,.41.33.73.73.73s.73-.33.73-.73v-14.11c-.49.06-.98.07-1.47,0Z"/>
        <path class="cls-12" d="m287.39,263.46l-4.61,4.61c-.29.29-.29.75,0,1.04.14.14.33.22.52.22s.38-.07.52-.22l4.63-4.63c-.22-.17-.44-.35-.65-.53-.15-.15-.28-.32-.41-.49Z"/>
      </g>
      <g>
        <line class="cls-5" x1="40.56" y1="54.88" x2="40.12" y2="55.77"/>
        <line class="cls-9" x1="38.28" y1="59.5" x2="22.67" y2="91.13"/>
        <line class="cls-5" x1="21.75" y1="92.99" x2="21.31" y2="93.89"/>
      </g>
      <g>
        <line class="cls-11" x1="16.69" y1="129.3" x2="17.17" y2="130.72"/>
        <line class="cls-6" x1="18.39" y1="134.35" x2="19.74" y2="138.33"/>
        <line class="cls-11" x1="20.35" y1="140.15" x2="20.83" y2="141.57"/>
      </g>
      <circle class="cls-14" cx="24.16" cy="151.76" r="6.77"/>
      <line class="cls-7" x1="36.35" y1="158.53" x2="102.45" y2="195.44"/>
      <circle class="cls-14" cx="104.01" cy="28.58" r="1.68"/>
      <circle class="cls-14" cx="110.37" cy="29.1" r="2.79"/>
      <circle class="cls-14" cx="362.66" cy="160.44" r="3.29"/>
      <circle class="cls-14" cx="350.94" cy="164.83" r="5.48"/>
      <path class="cls-14" d="m126.83,30.88h-1.06c-1.01,0-1.83-.82-1.83-1.83v-7.95h-1v7.95c0,1.01-.82,1.83-1.83,1.83h-1.06v1h1.06c1.01,0,1.83.82,1.83,1.83v7.95h1v-7.95c0-1.01.82-1.83,1.83-1.83h1.06v-1Z"/>
      <path class="cls-14" d="m132.81,36.06h-.87c-1.12,0-2.02-.9-2.02-2.02v-7.76h-1v7.76c0,1.12-.9,2.02-2.02,2.02h-.87v1h.87c1.12,0,2.02.9,2.02,2.02v7.76h1v-7.76c0-1.12.9-2.02,2.02-2.02h.87v-1Z"/>
      <path class="cls-14" d="m272.35,304.03h-1.06c-1.01,0-1.83-.65-1.83-1.46v-6.35h-1v6.35c0,.81-.82,1.46-1.83,1.46h-1.06v.8h1.06c1.01,0,1.83.65,1.83,1.46v6.35h1v-6.35c0-.81.82-1.46,1.83-1.46h1.06v-.8Z"/>
      <path class="cls-14" d="m278.33,299.95h-.87c-1.12,0-2.02-.72-2.02-1.61v-6.2h-1v6.2c0,.89-.9,1.61-2.02,1.61h-.87v.8h.87c1.12,0,2.02.72,2.02,1.61v6.2h1v-6.2c0-.89.9-1.61,2.02-1.61h.87v-.8Z"/>
      <line class="cls-8" x1="137.72" y1="41.66" x2="266.06" y2="132.13"/>
      <line class="cls-2" x1="288.07" y1="144.99" x2="340.36" y2="161.13"/>
      <line class="cls-2" x1="372.79" y1="163.74" x2="393.05" y2="161.98"/>
      <g>
        <line class="cls-5" x1="128.29" y1="205.9" x2="129.28" y2="206.01"/>
        <line class="cls-1" x1="132.92" y1="206.42" x2="147.47" y2="208.04"/>
        <line class="cls-5" x1="149.28" y1="208.24" x2="150.28" y2="208.36"/>
      </g>
      <line class="cls-8" x1="173.88" y1="213.81" x2="268.39" y2="252.94"/>
      <path class="cls-14" d="m279.57,253.01c.14-1.09-.63-2.08-1.71-2.23s-2.08.63-2.23,1.71c-.12.92.42,1.77,1.24,2.1.15.05.31.09.47.11s.33.02.49.01c.88-.1,1.62-.79,1.74-1.71Z"/>
      <path class="cls-14" d="m279.28,247.53c.11-.81-.47-1.56-1.28-1.67s-1.56.47-1.67,1.28c-.09.69.31,1.33.93,1.57.11.04.23.07.35.08s.24.02.36.01c.66-.08,1.21-.59,1.3-1.28Z"/>
      <line class="cls-13" x1="285.5" y1="276.28" x2="279.59" y2="287.86"/>
      <line class="cls-13" x1="288.45" y1="277.07" x2="277.6" y2="298.12"/>
      <line class="cls-8" x1="305.17" y1="247.33" x2="325.98" y2="222.59"/>
      <line class="cls-13" x1="341.18" y1="203.89" x2="352.51" y2="173.49"/>
      <line class="cls-13" x1="354.42" y1="174.2" x2="347.88" y2="191.41"/>
    </g>
  </g>
</svg>