<?xml version="1.0" encoding="UTF-8"?>
<svg id="_레이어_2" data-name="레이어 2" xmlns="http://www.w3.org/2000/svg" viewBox="0 0 540.2 435.18">
  <defs>
    <style>
      .cls-1, .cls-2, .cls-3, .cls-4, .cls-5, .cls-6, .cls-7, .cls-8, .cls-9, .cls-10, .cls-11 {
        stroke: #fff;
      }

      .cls-1, .cls-2, .cls-3, .cls-4, .cls-5, .cls-9, .cls-11 {
        stroke-linejoin: round;
      }

      .cls-1, .cls-2, .cls-3, .cls-4, .cls-10, .cls-11 {
        stroke-linecap: round;
      }

      .cls-1, .cls-5, .cls-7, .cls-9, .cls-12, .cls-11 {
        fill: #fff;
      }

      .cls-2, .cls-3, .cls-4, .cls-6, .cls-8, .cls-10 {
        fill: none;
      }

      .cls-3, .cls-5, .cls-6, .cls-11 {
        stroke-width: .75px;
      }

      .cls-4 {
        stroke-width: 2px;
      }

      .cls-4, .cls-10 {
        stroke-dasharray: 0 0 1 4;
      }

      .cls-6, .cls-7, .cls-8, .cls-10 {
        stroke-miterlimit: 10;
      }

      .cls-12 {
        stroke-width: 0px;
      }

      .cls-10 {
        stroke-width: 3px;
      }
    </style>
  </defs>
  <g id="_레이어_2-2" data-name="레이어 2">
    <g>
      <line class="cls-2" x1="214.12" y1=".5" x2="214.12" y2="14.74"/>
      <line class="cls-2" x1="208.77" y1="7.62" x2="219.46" y2="7.62"/>
      <line class="cls-2" x1="259.48" y1="7.62" x2="259.48" y2="21.86"/>
      <line class="cls-2" x1="256.04" y1="14.74" x2="262.91" y2="14.74"/>
      <path class="cls-12" d="m254.75,22.95c-3.46-1.03-8.86-2.42-12.91-3.12.72-1.4,5.9-8.03,5.08-8.59-.81-.56-7.68,4.24-8.62,5.13-.09-2.75-.65-7.82-3.02-15.51-.15-.48-.89-.48-1.03,0-2.37,7.69-2.93,12.76-3.02,15.51-.94-.89-7.81-5.69-8.62-5.13-.82.57,4.36,7.2,5.08,8.59-4.03.69-9.41,2.08-12.86,3.11-.49.15-.49.78,0,.93,3.46,1.03,8.83,2.41,12.86,3.11-.72,1.4-5.9,8.03-5.08,8.59.81.56,7.68-4.24,8.62-5.13.09,2.75.65,7.82,3.02,15.5.15.48.89.48,1.04,0,2.37-7.68,2.93-12.76,3.02-15.5.94.89,7.81,5.69,8.62,5.13.82-.57-4.36-7.2-5.08-8.59,4.05-.7,9.45-2.09,12.91-3.12.48-.14.48-.76,0-.9Z"/>
      <line class="cls-2" x1="185.6" y1="56.46" x2="216.97" y2="35.14"/>
      <path class="cls-8" d="m181.92,65.07c-4.95-.07-8.95-6.11-9-13.57h0s0,0,0,0c-.05,7.46-4.05,13.5-9,13.57h0s0,0,0,0c4.95.07,8.95,6.11,9,13.57h0s0,0,0,0c.05-7.46,4.05-13.5,9-13.57h0s0,0,0,0Z"/>
      <line class="cls-7" x1="174.47" y1="84.5" x2="181.92" y2="108.34"/>
      <circle class="cls-7" cx="184.83" cy="116.52" r="3.88"/>
      <circle class="cls-7" cx="191.84" cy="133.76" r="7.75"/>
      <line class="cls-8" x1="181.92" y1="145.68" x2="151.21" y2="194.79"/>
      <path class="cls-11" d="m155.55,214.48q-15.01,0-15.01-20.94h0s0,0,0,0q0,20.95-15.01,20.94h0s0,.01,0,.01q15.01,0,15.01,20.94h0s0,0,0,0q0-20.95,15.01-20.94h0s0-.01,0-.01Z"/>
      <line class="cls-3" x1="146.1" y1="208.97" x2="151.89" y2="203.19"/>
      <line class="cls-3" x1="128.89" y1="203.71" x2="134.52" y2="208.44"/>
      <line class="cls-3" x1="132.95" y1="220.35" x2="130.46" y2="222.83"/>
      <line class="cls-3" x1="134.99" y1="221.74" x2="132.77" y2="229.89"/>
      <line class="cls-3" x1="145.1" y1="220.5" x2="150.04" y2="226.38"/>
      <line class="cls-4" x1="79.4" y1="284.8" x2="127.04" y2="229.46"/>
      <path class="cls-7" d="m68.66,302.59q-7.22,0-7.22-13.3h0s0,0,0,0q0,13.3-7.22,13.3h0s0,0,0,0q7.22,0,7.22,13.3h0s0,0,0,0q0-13.3,7.22-13.3h0s0,0,0,0Z"/>
      <path class="cls-7" d="m80.63,294.82q-7.22,0-7.22-13.3h0s0,0,0,0q0,13.3-7.22,13.3h0s0,0,0,0q7.22,0,7.22,13.3h0s0,0,0,0q0-13.3,7.22-13.3h0s0,0,0,0Z"/>
      <line class="cls-8" x1="54.22" y1="312.21" x2="36.81" y2="333.01"/>
      <path class="cls-5" d="m37.9,350.66c-8.73-.1-15.79-8.52-15.88-18.93h0s0,0,0,0c-.09,10.41-7.15,18.83-15.88,18.93h0s0,0,0,0c8.73.1,15.79,8.52,15.88,18.93h0s0,0,0,0c.09-10.41,7.15-18.83,15.88-18.93h0s0,0,0,0Z"/>
      <line class="cls-3" x1="12.92" y1="340.4" x2="10.76" y2="335.98"/>
      <line class="cls-3" x1="10.14" y1="342.47" x2=".38" y2="335.81"/>
      <line class="cls-2" x1="45.52" y1="348.73" x2="66.19" y2="344.07"/>
      <circle class="cls-1" cx="77.02" cy="342.75" r="3.61"/>
      <circle class="cls-1" cx="94.37" cy="340.41" r="8.69"/>
      <line class="cls-2" x1="112.29" y1="331.72" x2="195.79" y2="311.23"/>
      <path class="cls-12" d="m217.78,303.37h-5.06c-.92,0-1.66-.76-1.66-1.71v-8.2c0-.23-.18-.42-.41-.42s-.41.19-.41.42v8.2c0,.94-.74,1.71-1.66,1.71h-5.06c-.23,0-.41.19-.41.42s.18.42.41.42h5.06c.92,0,1.66.76,1.66,1.71v8.14c0,.23.18.42.41.42s.41-.19.41-.42v-8.14c0-.94.74-1.71,1.66-1.71h5.06c.23,0,.41-.19.41-.42s-.18-.42-.41-.42Z"/>
      <path class="cls-12" d="m232.08,310.43h-5.95c-1.08,0-1.95-.9-1.95-2v-9.64c0-.27-.21-.49-.48-.49s-.48.22-.48.49v9.64c0,1.11-.87,2-1.95,2h-5.95c-.26,0-.48.22-.48.49s.21.49.48.49h5.95c1.08,0,1.95.9,1.95,2v9.57c0,.27.21.49.48.49s.48-.22.48-.49v-9.57c0-1.11.87-2,1.95-2h5.95c.26,0,.48-.22.48-.49s-.21-.49-.48-.49Z"/>
      <polygon class="cls-9" points="280.06 302.59 269.05 338.05 296.01 316.05 263.66 316.32 292.47 338.05 280.06 302.59"/>
      <circle class="cls-9" cx="240.33" cy="310.7" r="2.57"/>
      <circle class="cls-9" cx="252.05" cy="317.37" r="4.11"/>
      <circle class="cls-9" cx="299.14" cy="322.48" r="1"/>
      <circle class="cls-9" cx="310.39" cy="320.43" r="3.05"/>
      <line class="cls-4" x1="321.49" y1="320.32" x2="375.51" y2="320.32"/>
      <path class="cls-6" d="m400.28,317.51c-1.81-.3-4.64-.67-6.74-.8.31-.65,2.72-3.81,2.27-4.02-.44-.21-3.77,2.22-4.22,2.65-.15-1.21-.63-3.42-2.15-6.71-.09-.2-.47-.17-.53.05-.92,3.5-1.01,5.76-.95,6.98-.52-.35-4.22-2.16-4.62-1.88-.4.29,2.52,2.98,2.94,3.57-2.04.49-4.74,1.34-6.48,1.95-.25.09-.22.37.04.41,1.81.3,4.62.67,6.72.8-.31.65-2.72,3.81-2.27,4.02.44.21,3.77-2.22,4.22-2.65.15,1.21.63,3.42,2.15,6.71.09.2.47.17.53-.05.92-3.5,1.01-5.76.95-6.98.52.35,4.22,2.16,4.62,1.88.4-.29-2.52-2.98-2.94-3.57,2.05-.49,4.77-1.35,6.5-1.96.24-.08.22-.36-.03-.4Z"/>
      <line class="cls-8" x1="402.87" y1="322.37" x2="433.01" y2="331.3"/>
      <circle class="cls-8" cx="450.12" cy="337.95" r="11.11"/>
      <line class="cls-10" x1="465.23" y1="329.03" x2="474.17" y2="321.88"/>
      <line class="cls-2" x1="526.55" y1="330.58" x2="526.55" y2="341.03"/>
      <line class="cls-2" x1="523.83" y1="335.8" x2="529.28" y2="335.8"/>
      <line class="cls-2" x1="530.05" y1="340.33" x2="530.05" y2="350.77"/>
      <line class="cls-2" x1="527.6" y1="345.55" x2="532.49" y2="345.55"/>
      <circle class="cls-1" cx="518.49" cy="345.43" r="5.34"/>
      <path class="cls-8" d="m445.79,416.67c13.89,10.64,31.27,7.2,31.27,7.2"/>
      <path class="cls-12" d="m499.11,316.43c-6.03-.08-10.91-6.36-10.97-14.14h0s0,0,0,0c-.06,7.78-4.94,14.06-10.97,14.14h0s0,0,0,0c6.03.08,10.91,6.36,10.97,14.14h0s0,0,0,0c.06-7.78,4.94-14.06,10.97-14.14h0s0,0,0,0Z"/>
      <path class="cls-8" d="m506.13,420.53c-7.25-.08-13.11-6.36-13.19-14.14h0s0,0,0,0c-.07,7.78-5.94,14.06-13.19,14.14h0s0,0,0,0c7.25.08,13.11,6.36,13.19,14.14h0s0,0,0,0c.07-7.78,5.94-14.06,13.19-14.14h0s0,0,0,0Z"/>
      <line class="cls-2" x1="499.11" y1="325.45" x2="513.15" y2="335.8"/>
      <circle class="cls-12" cx="513.87" cy="400.15" r="4.13"/>
      <path class="cls-7" d="m533.32,384.69c-4.95-1.72-10.37.91-12.09,5.86s.91,10.37,5.86,12.09,10.37-.91,12.09-5.86c1.72-4.95-.91-10.37-5.86-12.09Zm-5.96,17.19c-3.53-1.22-5.4-5.08-4.17-8.6,1.09-3.14,4.27-4.95,7.44-4.45.39.03.79.1,1.18.23s.74.33,1.07.54c2.81,1.57,4.18,4.96,3.09,8.1-1.22,3.53-5.08,5.4-8.6,4.17Z"/>
      <path class="cls-6" d="m429.43,420.52c-3.42-.5-3.42-19.05-.07-20.87,3.48-1.88,14.97,11.76,13.42,14.99-1.69,3.54-19.84-1.18-20.44-4.66-.61-3.51,16.43-10.23,18.98-7.73,2.38,2.33-8.24,18.8-11.89,18.27Z"/>
      <path class="cls-8" d="m435.63,366.76q-6.65,0-6.65-9.73h0s0,0,0,0q0,9.74-6.65,9.73h0s0,0,0,0q6.65,0,6.65,9.73h0s0,0,0,0q0-9.74,6.65-9.73h0s0,0,0,0Z"/>
      <path class="cls-8" d="m445.66,376.5q-6.65,0-6.65-9.73h0s0,0,0,0q0,9.74-6.65,9.73h0s0,0,0,0q6.65,0,6.65,9.73h0s0,0,0,0q0-9.74,6.65-9.73h0s0,0,0,0Z"/>
      <circle class="cls-12" cx="437.44" cy="353.9" r="3.12"/>
      <circle class="cls-12" cx="430.67" cy="389.25" r="1.69"/>
      <circle class="cls-12" cx="523.63" cy="359.13" r="2.93"/>
      <line class="cls-8" x1="525.03" y1="366.76" x2="526.55" y2="379.35"/>
      <line class="cls-8" x1="502.51" y1="412.61" x2="509.74" y2="407.35"/>
    </g>
  </g>
</svg>