<?xml version="1.0" encoding="UTF-8"?>
<svg id="_레이어_2" data-name="레이어 2" xmlns="http://www.w3.org/2000/svg" viewBox="0 0 388.58 506.9">
  <defs>
    <style>
      .cls-1, .cls-2, .cls-3, .cls-4, .cls-5, .cls-6, .cls-7, .cls-8, .cls-9, .cls-10, .cls-11 {
        stroke: #fff;
      }

      .cls-1, .cls-3, .cls-5 {
        stroke-linejoin: round;
      }

      .cls-1, .cls-4, .cls-5, .cls-6, .cls-8, .cls-9, .cls-10, .cls-11 {
        fill: none;
      }

      .cls-2, .cls-3, .cls-4, .cls-5, .cls-6, .cls-8 {
        stroke-linecap: round;
      }

      .cls-2, .cls-3, .cls-4, .cls-5, .cls-8, .cls-9 {
        stroke-width: 2px;
      }

      .cls-2, .cls-3, .cls-7, .cls-12 {
        fill: #fff;
      }

      .cls-2, .cls-4, .cls-6, .cls-7, .cls-8, .cls-9, .cls-10, .cls-11 {
        stroke-miterlimit: 10;
      }

      .cls-4 {
        stroke-dasharray: 0 0 1 2.99;
      }

      .cls-5 {
        stroke-dasharray: 0 0 1 4;
      }

      .cls-12 {
        stroke-width: 0px;
      }

      .cls-11 {
        stroke-width: .5px;
      }
    </style>
  </defs>
  <g id="_레이어_2-2" data-name="레이어 2">
    <g>
      <path class="cls-10" d="m112.28,173.48q-17.96,0-17.95-17.95h0s0,0,0,0q0,17.96-17.95,17.95h0s0,0,0,0q17.96,0,17.95,17.95h0s0,0,0,0q0-17.96,17.95-17.95h0s0,0,0,0Z"/>
      <path class="cls-7" d="m260.3,119.54c-6.02-1.09-6.54-.87-7.2-7.2h0s0,0,0,0c-.99,5.5-.53,6.02-7.2,7.2h0s0,0,0,0c5.92.6,6.33.6,7.2,7.2h0s0,0,0,0c.88-6.29,1.03-6.61,7.2-7.2h0s0,0,0,0Z"/>
      <path class="cls-10" d="m220.14,256.11q-4.44,0-4.43-7.45h0s0,0,0,0q0,7.46-4.43,7.45h0s0,0,0,0q4.44,0,4.43,7.45h0s0,0,0,0q0-7.46,4.43-7.45h0s0,0,0,0Z"/>
      <path class="cls-12" d="m120.96,155.52q-10.73,0-10.73-10.73h0s0,0,0,0q0,10.73-10.73,10.73h0s0,0,0,0q10.73,0,10.73,10.73h0s0,0,0,0q0-10.73,10.73-10.73h0s0,0,0,0Z"/>
      <path class="cls-3" d="m100.07,353.25h0c-6.21,0-10.1,0-12.53-1.13.24-2.05,1.13-4.04,2.69-5.62h0s0,0,0,0c-1.55,1.52-3.48,2.4-5.47,2.66-1.28-3.02-1.28-8.27-1.28-17.42h0s0,0,0,0c0,9.15,0,14.4-1.28,17.42-1.99-.27-3.92-1.14-5.46-2.65h0c1.55,1.59,2.44,3.57,2.68,5.62-2.43,1.13-6.32,1.13-12.53,1.12h0s0,.01,0,.01c6.21,0,10.1,0,12.53,1.12-.24,2.05-1.13,4.04-2.69,5.62h0s0,0,0,0c1.55-1.52,3.48-2.4,5.47-2.66,1.28,3.02,1.28,8.27,1.28,17.42h0s0,0,0,0c0-9.15,0-14.4,1.28-17.42,1.99.27,3.92,1.14,5.46,2.65h0c-1.55-1.59-2.44-3.57-2.68-5.62,2.43-1.13,6.32-1.13,12.53-1.12h0Z"/>
      <circle class="cls-12" cx="71.11" cy="360.75" r="1.3"/>
      <circle class="cls-12" cx="66.64" cy="362.86" r="2.16"/>
      <path class="cls-12" d="m48.15,23.51c-4.13-1.08-10.59-2.54-15.42-3.27.86-1.46,7.05-8.4,6.07-9-.97-.59-9.18,4.44-10.3,5.37-.11-2.88-.78-8.19-3.61-16.24-.18-.5-1.06-.5-1.23,0-2.84,8.05-3.51,13.36-3.61,16.24-1.12-.93-9.33-5.96-10.3-5.37-.98.6,5.21,7.54,6.07,9-4.82.73-11.24,2.18-15.37,3.25-.59.15-.59.82,0,.97,4.13,1.08,10.55,2.53,15.37,3.25-.86,1.46-7.05,8.4-6.07,9,.97.59,9.18-4.44,10.3-5.37.11,2.88.78,8.19,3.61,16.23.18.5,1.06.5,1.24,0,2.84-8.05,3.5-13.36,3.61-16.23,1.12.93,9.33,5.96,10.3,5.37.98-.6-5.21-7.54-6.07-9,4.84-.73,11.29-2.19,15.42-3.27.57-.15.57-.8,0-.95Z"/>
      <line class="cls-10" x1="39.34" y1="18.43" x2="46.65" y2="16.16"/>
      <line class="cls-10" x1="31.02" y1="9.36" x2="33.04" y2="4.06"/>
      <line class="cls-10" x1="8.25" y1="29.68" x2="4.4" y2="30.87"/>
      <line class="cls-7" x1="32.03" y1="51.17" x2="48.58" y2="114.53"/>
      <circle class="cls-7" cx="57.95" cy="131.34" r="9.37"/>
      <circle class="cls-7" cx="57.87" cy="112.59" r="2.91"/>
      <circle class="cls-7" cx="186.6" cy="160.05" r="6.54"/>
      <circle class="cls-7" cx="173.59" cy="158.6" r="2.03"/>
      <circle class="cls-7" cx="273.15" cy="306.75" r="6.54"/>
      <circle class="cls-7" cx="260.75" cy="302.57" r="2.03"/>
      <circle class="cls-7" cx="295.98" cy="326.1" r="6.54"/>
      <circle class="cls-7" cx="288.73" cy="315.22" r="2.03"/>
      <line class="cls-10" x1="69.51" y1="146.85" x2="83.41" y2="159.78"/>
      <line class="cls-10" x1="124.22" y1="163.26" x2="164.47" y2="158.85"/>
      <line class="cls-11" x1="101.16" y1="186.53" x2="104.58" y2="263.62"/>
      <line class="cls-11" x1="99.49" y1="198.3" x2="101.16" y2="243.11"/>
      <path class="cls-12" d="m115.93,279.11c.54-.22.54-.81,0-1.03-.96-.39-2.09-.8-3.39-1.16-1.72-.49-3.31-.79-4.63-.97.05-1.28-2.03-7.79-2.79-8.88-.28-.4-1.04-.4-1.33,0-.77,1.09-2.85,7.6-2.79,8.88-1.32.19-2.9.49-4.63.97-1.31.37-2.45.78-3.41,1.17-.53.22-.53.8,0,1.02.96.39,2.1.8,3.41,1.17,1.72.49,3.31.79,4.63.97-.05,1.28,2.08,7.89,2.88,9,.25.35.91.35,1.16,0,.79-1.11,2.93-7.72,2.88-9,1.32-.19,2.9-.49,4.63-.97,1.3-.37,2.43-.77,3.39-1.16Z"/>
      <line class="cls-10" x1="100.33" y1="292.64" x2="89.17" y2="334.09"/>
      <line class="cls-5" x1="104.45" y1="344.23" x2="211.37" y2="290.51"/>
      <line class="cls-8" x1="225.24" y1="268.8" x2="225.24" y2="296.94"/>
      <line class="cls-8" x1="215.71" y1="282.87" x2="234.78" y2="282.87"/>
      <line class="cls-8" x1="217.33" y1="274.02" x2="220.58" y2="277.75"/>
      <line class="cls-8" x1="229.58" y1="288.14" x2="231.28" y2="291.86"/>
      <line class="cls-6" x1="232.06" y1="287.52" x2="234.78" y2="288.45"/>
      <line class="cls-8" x1="170.03" y1="423.13" x2="170.03" y2="445.8"/>
      <line class="cls-8" x1="160.49" y1="434.47" x2="179.56" y2="434.47"/>
      <line class="cls-9" x1="193.14" y1="173.49" x2="211.27" y2="243.49"/>
      <line class="cls-10" x1="199.26" y1="149.33" x2="244.88" y2="124.09"/>
      <line class="cls-10" x1="94.33" y1="370.78" x2="155.13" y2="426.99"/>
      <circle class="cls-2" cx="180.49" cy="429.43" r=".93"/>
      <circle class="cls-2" cx="186.55" cy="431.01" r=".66"/>
      <circle class="cls-2" cx="195.06" cy="420.18" r="6.89"/>
      <path class="cls-6" d="m203.79,431.67c3.41,12.08,11.36,26.63,26.64,36.4"/>
      <circle class="cls-12" cx="268.89" cy="476.51" r="2.21"/>
      <path class="cls-12" d="m272.95,483.31q-18.2,0-18.2-23.58h0s0,0,0,0q0,23.58-18.2,23.58h0s0,.01,0,.01q18.2,0,18.2,23.58h0s0,0,0,0q0-23.58,18.2-23.58h0s0-.01,0-.01Z"/>
      <path class="cls-12" d="m262.15,475.91c-4.11,4.03-10.69,4.04-14.8.01h0c4.02,4.11,4.02,10.69-.01,14.8h0s0,0,0,0c4.11-4.03,10.69-4.04,14.8-.01h0c-4.02-4.11-4.02-10.69.01-14.8h0s0,0,0,0Z"/>
      <path class="cls-12" d="m243.12,471.76c0,1.16.95,2.11,2.11,2.11s2.11-.95,2.11-2.11c0-.99-.68-1.81-1.6-2.04-.17-.03-.34-.05-.51-.05s-.35.02-.51.05c-.91.23-1.6,1.05-1.6,2.04Z"/>
      <circle class="cls-12" cx="237.42" cy="472.48" r="4.11"/>
      <line class="cls-9" x1="241.53" y1="290.51" x2="254.75" y2="296.94"/>
      <g>
        <path class="cls-8" d="m302.53,336.41c.08.15.15.3.23.44"/>
        <path class="cls-4" d="m304.14,339.5c13.59,25.84,23.09,35.87,51.14,58.14"/>
        <path class="cls-8" d="m356.45,398.57c.13.1.26.21.39.31"/>
      </g>
      <polygon class="cls-1" points="369.77 396.98 361.93 422.24 381.13 406.57 358.09 406.76 378.61 422.24 369.77 396.98"/>
      <line class="cls-1" x1="381.55" y1="415.16" x2="384.57" y2="417.82"/>
      <line class="cls-1" x1="383.34" y1="410.97" x2="388.57" y2="410.91"/>
    </g>
  </g>
</svg>